<svg id="Group_26" data-name="Group 26" xmlns="http://www.w3.org/2000/svg" xmlns:xlink="http://www.w3.org/1999/xlink" width="171.069" height="33.604" viewBox="0 0 171.069 33.604">
  <defs>
    <clipPath id="clip-path">
      <rect id="Rectangle_148" data-name="Rectangle 148" width="171.069" height="33.604" fill="none"/>
    </clipPath>
  </defs>
  <g id="Group_25" data-name="Group 25" transform="translate(0 0)" clip-path="url(#clip-path)">
    <path id="Rectangle_127" data-name="Rectangle 127" d="M1.8,0H168.129a1.8,1.8,0,0,1,1.8,1.8V30.665a1.8,1.8,0,0,1-1.8,1.8H1.8a1.8,1.8,0,0,1-1.8-1.8V1.8A1.8,1.8,0,0,1,1.8,0Z" transform="translate(0.568 0.568)" fill="none" stroke="#330f10" stroke-miterlimit="10" stroke-width="1"/>
    <path id="Path_1" data-name="Path 1" d="M147.384,26.443H114.276a.408.408,0,0,1-.408-.408v-20a.408.408,0,0,1,.408-.408h33.109a.408.408,0,0,1,.408.408v20a.408.408,0,0,1-.408.408" transform="translate(15.481 0.765)" fill="#e0e1e3"/>
    <rect id="Rectangle_128" data-name="Rectangle 128" width="33.924" height="20.814" rx="0.359" transform="translate(129.35 6.394)" fill="none" stroke="#330f10" stroke-miterlimit="10" stroke-width="0.75"/>
    <rect id="Rectangle_129" data-name="Rectangle 129" width="30.119" height="16.39" transform="translate(131.252 8.607)" fill="#edeeef"/>
    <rect id="Rectangle_130" data-name="Rectangle 130" width="30.119" height="16.39" transform="translate(131.252 8.607)" fill="none" stroke="#330f10" stroke-miterlimit="10" stroke-width="0.75"/>
    <rect id="Rectangle_131" data-name="Rectangle 131" width="26.469" height="12.602" transform="translate(133.077 10.501)" fill="#fff"/>
    <rect id="Rectangle_132" data-name="Rectangle 132" width="26.469" height="12.602" transform="translate(133.077 10.501)" fill="none" stroke="#330f10" stroke-miterlimit="10" stroke-width="0.75"/>
    <path id="Path_2" data-name="Path 2" d="M111.716,26.443H78.608a.408.408,0,0,1-.408-.408v-20a.408.408,0,0,1,.408-.408h33.109a.408.408,0,0,1,.408.408v20a.408.408,0,0,1-.408.408" transform="translate(10.632 0.765)" fill="#e0e1e3"/>
    <rect id="Rectangle_133" data-name="Rectangle 133" width="33.924" height="20.814" rx="0.359" transform="translate(88.832 6.394)" fill="none" stroke="#330f10" stroke-miterlimit="10" stroke-width="0.75"/>
    <rect id="Rectangle_134" data-name="Rectangle 134" width="30.119" height="16.39" transform="translate(90.734 8.607)" fill="#edeeef"/>
    <rect id="Rectangle_135" data-name="Rectangle 135" width="30.119" height="16.39" transform="translate(90.734 8.607)" fill="none" stroke="#330f10" stroke-miterlimit="10" stroke-width="0.75"/>
    <rect id="Rectangle_136" data-name="Rectangle 136" width="26.469" height="12.602" transform="translate(92.559 10.501)" fill="#fff"/>
    <rect id="Rectangle_137" data-name="Rectangle 137" width="26.469" height="12.602" transform="translate(92.559 10.501)" fill="none" stroke="#330f10" stroke-miterlimit="10" stroke-width="0.75"/>
    <path id="Path_3" data-name="Path 3" d="M76.047,26.443H42.939a.408.408,0,0,1-.408-.408v-20a.408.408,0,0,1,.408-.408H76.047a.408.408,0,0,1,.408.408v20a.408.408,0,0,1-.408.408" transform="translate(5.782 0.765)" fill="#e0e1e3"/>
    <rect id="Rectangle_138" data-name="Rectangle 138" width="33.924" height="20.814" rx="0.359" transform="translate(48.314 6.394)" fill="none" stroke="#330f10" stroke-miterlimit="10" stroke-width="0.75"/>
    <rect id="Rectangle_139" data-name="Rectangle 139" width="30.119" height="16.39" transform="translate(50.216 8.607)" fill="#edeeef"/>
    <rect id="Rectangle_140" data-name="Rectangle 140" width="30.119" height="16.39" transform="translate(50.216 8.607)" fill="none" stroke="#330f10" stroke-miterlimit="10" stroke-width="0.75"/>
    <rect id="Rectangle_141" data-name="Rectangle 141" width="26.469" height="12.602" transform="translate(52.042 10.501)" fill="#fff"/>
    <rect id="Rectangle_142" data-name="Rectangle 142" width="26.469" height="12.602" transform="translate(52.042 10.501)" fill="none" stroke="#330f10" stroke-miterlimit="10" stroke-width="0.75"/>
    <path id="Path_4" data-name="Path 4" d="M40.379,26.443H7.271a.408.408,0,0,1-.408-.408v-20a.408.408,0,0,1,.408-.408H40.379a.408.408,0,0,1,.407.408v20a.408.408,0,0,1-.407.408" transform="translate(0.933 0.765)" fill="#e0e1e3"/>
    <rect id="Rectangle_143" data-name="Rectangle 143" width="33.924" height="20.814" rx="0.359" transform="translate(7.796 6.394)" fill="none" stroke="#330f10" stroke-miterlimit="10" stroke-width="0.75"/>
    <rect id="Rectangle_144" data-name="Rectangle 144" width="30.119" height="16.39" transform="translate(9.698 8.607)" fill="#edeeef"/>
    <rect id="Rectangle_145" data-name="Rectangle 145" width="30.119" height="16.39" transform="translate(9.698 8.607)" fill="none" stroke="#330f10" stroke-miterlimit="10" stroke-width="0.75"/>
    <rect id="Rectangle_146" data-name="Rectangle 146" width="26.469" height="12.602" transform="translate(11.523 10.501)" fill="#fff"/>
    <rect id="Rectangle_147" data-name="Rectangle 147" width="26.469" height="12.602" transform="translate(11.523 10.501)" fill="none" stroke="#330f10" stroke-miterlimit="10" stroke-width="0.75"/>
  </g>
</svg>
