<?xml version="1.0" encoding="UTF-8"?>
<svg version="1.1" xmlns="http://www.w3.org/2000/svg" width="603" height="118">
<path d="M0 0 C0.85179644 -0.00352842 1.70359289 -0.00705684 2.58120134 -0.01069218 C3.9958352 -0.00889551 3.9958352 -0.00889551 5.43904752 -0.00706255 C6.43937444 -0.00971438 7.43970137 -0.01236621 8.47034124 -0.01509839 C11.861206 -0.02282849 15.25203478 -0.02335198 18.6429078 -0.02394831 C21.08295298 -0.02796048 23.52299749 -0.03239829 25.96304119 -0.03722787 C31.99076962 -0.04796549 38.01848688 -0.05395573 44.04622223 -0.05793675 C51.26254746 -0.06294001 58.47886135 -0.07366654 65.69517989 -0.08441848 C83.1387556 -0.11006554 100.58233571 -0.12508666 118.02592486 -0.13792895 C123.80170077 -0.14218183 129.57747636 -0.14674751 135.35325187 -0.15151227 C166.04492585 -0.17676905 196.73660035 -0.19882336 227.42828244 -0.21124041 C234.54130272 -0.21416188 241.65432298 -0.21712937 248.76734322 -0.22014582 C249.65107053 -0.22051673 250.53479784 -0.22088764 251.44530476 -0.22126979 C280.110091 -0.23343045 308.7748159 -0.26438245 337.43957333 -0.30606735 C366.89365423 -0.34882217 396.34770274 -0.37547719 425.80181552 -0.38071512 C429.95893632 -0.38145561 434.11605706 -0.38236631 438.2731778 -0.3833729 C439.09137277 -0.38356352 439.90956774 -0.38375413 440.7525565 -0.38395052 C453.93838751 -0.38746881 467.12414189 -0.40778827 480.30994473 -0.43416954 C493.5551424 -0.46027078 506.80025122 -0.46806002 520.04547093 -0.45706825 C527.92077286 -0.4510769 535.79577413 -0.45907896 543.67103074 -0.48689909 C549.54221538 -0.50611016 555.41317952 -0.49938289 561.28437748 -0.48232992 C563.66663082 -0.47950912 566.0489119 -0.48524239 568.43112031 -0.50014286 C571.6567022 -0.51909356 574.88075463 -0.50756454 578.1062991 -0.48808062 C579.04236484 -0.50092984 579.97843058 -0.51377906 580.94286194 -0.52701765 C585.47511673 -0.46640159 587.35561646 -0.34177264 591.03805566 2.52558208 C593.07304463 5.28107787 593.58827661 6.43303168 593.59635323 9.79767644 C593.61045235 10.7060526 593.62455148 11.61442876 593.63907784 12.55033147 C593.62895669 13.53437963 593.61883553 14.51842779 593.60840768 15.53229558 C593.61716927 16.57837987 593.62593087 17.62446416 593.63495797 18.70224798 C593.65695215 22.15773871 593.64239801 25.61194825 593.62549752 29.06745183 C593.62886562 31.4697167 593.63371818 33.87197991 593.63999337 36.27423894 C593.64736478 41.30801407 593.63664982 46.34134548 593.61329049 51.37506902 C593.58480343 57.8284058 593.60120584 64.28070289 593.63115281 70.73400152 C593.64921801 75.69428124 593.64347113 80.65431435 593.63051385 85.61460149 C593.62717773 87.99405831 593.63127408 90.3735375 593.64291161 92.75296819 C593.65560667 96.07845169 593.63625959 99.40225015 593.60840768 102.72760808 C593.61852883 103.71165624 593.62864999 104.6957044 593.63907784 105.7095722 C593.62497872 106.61794836 593.6108796 107.52632452 593.59635323 108.46222723 C593.5944681 109.24755331 593.59258298 110.03287939 593.59064072 110.84200323 C592.59585122 114.45930557 590.91082006 115.83250121 587.96143502 118.12995183 C584.68138301 118.86705674 581.46517227 118.79932582 578.11467904 118.75636423 C577.11089058 118.76333183 576.10710212 118.77029944 575.07289582 118.77747819 C571.68794721 118.79481018 568.30412967 118.77630979 564.91919869 118.75814092 C562.47655975 118.76318284 560.03392451 118.7704089 557.59129781 118.77963907 C552.26956318 118.79466523 546.94816734 118.79406744 541.62645501 118.77981222 C533.713053 118.75867251 525.79985787 118.76606984 517.88644776 118.77918743 C503.75450208 118.80166612 489.62267585 118.79563589 475.49073002 118.77775133 C463.12380694 118.76219705 450.75692578 118.75632822 438.38999337 118.76009214 C437.5703454 118.76032894 436.75069743 118.76056574 435.90621164 118.76080972 C432.57917159 118.76178461 429.25213156 118.76280541 425.92509155 118.76389482 C394.70130358 118.77398272 363.47758926 118.75569943 332.25381862 118.72417447 C304.50040687 118.69631284 276.74708273 118.69134971 248.99366158 118.70636785 C241.8873333 118.71019014 234.78100502 118.71398489 227.6746766 118.71753824 C226.36245483 118.71819496 226.36245483 118.71819496 225.02372354 118.71886495 C201.84782459 118.73009928 178.67193212 118.72275989 155.49603528 118.70965749 C153.00290966 118.70826889 150.50978403 118.70688818 148.0166584 118.70551907 C146.36271553 118.70460969 144.70877266 118.70368702 143.0548298 118.70275096 C130.69429291 118.69594889 118.33378131 118.69862083 105.97324532 118.70569837 C91.92174751 118.71365616 77.87033793 118.70713027 63.81885952 118.68152333 C55.9502647 118.66757571 48.08184745 118.66464173 40.21324968 118.67745804 C34.34714541 118.68577216 28.48120829 118.67328535 22.61513072 118.65248381 C20.23499658 118.64729822 17.85483637 118.64893321 15.47471339 118.65787847 C12.25218196 118.66898716 9.03065992 118.65573547 5.808191 118.63610971 C4.87298281 118.64518853 3.93777461 118.65426734 2.97422677 118.66362128 C-1.2312922 118.61331259 -3.45246135 118.49598986 -7.09148723 116.22331697 C-9.80102705 113.31020465 -10.16435005 111.76898753 -10.185736 107.89891851 C-10.1928913 107.01149465 -10.20004661 106.12407079 -10.20741874 105.2097553 C-10.2114521 103.74555654 -10.2114521 103.74555654 -10.21556693 102.25177801 C-10.22213813 101.22563894 -10.22870933 100.19949987 -10.23547965 99.14226568 C-10.25524137 95.73581663 -10.2668812 92.32941172 -10.27684623 88.92292058 C-10.28092176 87.76154388 -10.28499728 86.60016717 -10.28919631 85.40359724 C-10.31006855 79.25761502 -10.32436572 73.11165521 -10.333731 66.96564519 C-10.34480239 60.60995104 -10.3792078 54.25460632 -10.4189027 47.89903581 C-10.44501725 43.01860172 -10.45341822 38.13825155 -10.45701247 33.25775373 C-10.46189118 30.91455826 -10.47354143 28.57136686 -10.49205047 26.22823942 C-10.51633319 22.95064567 -10.51549651 19.67396495 -10.50853568 16.39630926 C-10.52134574 15.42624944 -10.5341558 14.45618963 -10.54735404 13.45673406 C-10.51396842 9.14935887 -10.44207273 6.78237639 -8.13419181 3.0508045 C-5.27338639 0.42858873 -3.77414317 0.00492807 0 0 Z M-5.03856498 7.12995183 C-5.03856498 9.76995183 -5.03856498 12.40995183 -5.03856498 15.12995183 C190.98143502 15.12995183 387.00143502 15.12995183 588.96143502 15.12995183 C589.32071498 9.64458366 589.32071498 9.64458366 588.05907178 6.78606296 C584.55511975 4.01964789 580.73017152 4.58622268 576.39924687 4.6321739 C575.40193243 4.62695933 574.40461799 4.62174476 573.3770819 4.61637217 C570.00227439 4.60368087 566.62819836 4.6197536 563.25341195 4.63547552 C560.82273793 4.63230193 558.39206567 4.62737733 555.96139836 4.6208427 C550.65972341 4.61065778 545.35827005 4.61299917 540.05661744 4.62621343 C532.17314336 4.64580887 524.28979506 4.6425943 516.4063065 4.63471284 C503.14583692 4.62214652 489.88543836 4.62852396 476.62497681 4.64590108 C463.48980395 4.6631106 450.35466298 4.67294186 437.21947831 4.67256582 C436.40341652 4.67255053 435.58735474 4.67253524 434.74656381 4.67251948 C431.43418827 4.67243767 428.12181273 4.67230645 424.8094372 4.67210786 C393.71704533 4.67029445 362.62470215 4.69020453 331.53232718 4.72096719 C303.88670044 4.7482188 276.24110828 4.76068971 248.59546822 4.75934637 C246.82029507 4.75926554 245.04512192 4.75918482 243.26994877 4.75910421 C242.39235185 4.75906351 241.51475494 4.7590228 240.61056417 4.75898087 C236.19319361 4.75877929 231.77582306 4.75859812 227.3584525 4.75844038 C226.48704162 4.75840695 225.61563075 4.75837352 224.71781348 4.75833908 C201.6412102 4.75760932 178.56461126 4.76667975 155.4880116 4.7790935 C154.25726029 4.77975432 154.25726029 4.77975432 153.00164532 4.78042848 C149.70196433 4.78220502 146.40228334 4.78398179 143.10260237 4.7858104 C131.60590086 4.79213832 120.10920277 4.79514995 108.61249964 4.79603338 C93.8002832 4.79722576 78.98809535 4.80517847 64.17589115 4.82489629 C56.33560531 4.83515208 48.49536146 4.83993648 40.65506922 4.83690392 C34.81529458 4.83526983 28.97556676 4.84402691 23.1358052 4.85700493 C20.7623919 4.86065182 18.38897058 4.86087271 16.01555692 4.85747035 C12.80953708 4.8533806 9.60377895 4.86139575 6.39778203 4.87268293 C4.98951019 4.86651697 4.98951019 4.86651697 3.55278841 4.86022645 C2.28077544 4.86850568 2.28077544 4.86850568 0.98306525 4.87695217 C-0.11793103 4.87782667 -0.11793103 4.87782667 -1.24116967 4.87871883 C-3.29154658 4.98132424 -3.29154658 4.98132424 -5.03856498 7.12995183 Z M-5.03856498 17.12995183 C-5.03856498 20.42995183 -5.03856498 23.72995183 -5.03856498 27.12995183 C190.98143502 27.12995183 387.00143502 27.12995183 588.96143502 27.12995183 C588.96143502 23.82995183 588.96143502 20.52995183 588.96143502 17.12995183 C392.94143502 17.12995183 196.92143502 17.12995183 -5.03856498 17.12995183 Z M-5.03856498 30.12995183 C-5.03856498 32.43995183 -5.03856498 34.74995183 -5.03856498 37.12995183 C190.98143502 37.12995183 387.00143502 37.12995183 588.96143502 37.12995183 C588.96143502 34.81995183 588.96143502 32.50995183 588.96143502 30.12995183 C392.94143502 30.12995183 196.92143502 30.12995183 -5.03856498 30.12995183 Z M-5.03856498 45.12995183 C-5.03856498 47.43995183 -5.03856498 49.74995183 -5.03856498 52.12995183 C190.98143502 52.12995183 387.00143502 52.12995183 588.96143502 52.12995183 C588.96143502 49.81995183 588.96143502 47.50995183 588.96143502 45.12995183 C392.94143502 45.12995183 196.92143502 45.12995183 -5.03856498 45.12995183 Z M-5.03856498 55.12995183 C-5.03856498 58.42995183 -5.03856498 61.72995183 -5.03856498 65.12995183 C190.98143502 65.12995183 387.00143502 65.12995183 588.96143502 65.12995183 C588.96143502 61.82995183 588.96143502 58.52995183 588.96143502 55.12995183 C392.94143502 55.12995183 196.92143502 55.12995183 -5.03856498 55.12995183 Z M-5.03856498 67.12995183 C-5.03856498 69.43995183 -5.03856498 71.74995183 -5.03856498 74.12995183 C190.98143502 74.12995183 387.00143502 74.12995183 588.96143502 74.12995183 C588.96143502 71.81995183 588.96143502 69.50995183 588.96143502 67.12995183 C392.94143502 67.12995183 196.92143502 67.12995183 -5.03856498 67.12995183 Z M-5.03856498 83.12995183 C-5.03856498 85.43995183 -5.03856498 87.74995183 -5.03856498 90.12995183 C190.98143502 90.12995183 387.00143502 90.12995183 588.96143502 90.12995183 C588.96143502 87.81995183 588.96143502 85.50995183 588.96143502 83.12995183 C392.94143502 83.12995183 196.92143502 83.12995183 -5.03856498 83.12995183 Z M-5.03856498 93.12995183 C-5.03856498 96.09995183 -5.03856498 99.06995183 -5.03856498 102.12995183 C190.98143502 102.12995183 387.00143502 102.12995183 588.96143502 102.12995183 C588.96143502 99.15995183 588.96143502 96.18995183 588.96143502 93.12995183 C392.94143502 93.12995183 196.92143502 93.12995183 -5.03856498 93.12995183 Z M-5.03856498 105.12995183 C-5.03856498 107.10995183 -5.03856498 109.08995183 -5.03856498 111.12995183 C-2.66962336 113.49889345 -2.22945723 113.38039986 0.98306525 113.3829515 C1.83107389 113.38847099 2.67908253 113.39399047 3.55278841 113.39967722 C4.4916363 113.39556658 5.4304842 113.39145594 6.39778203 113.38722074 C7.89157353 113.39247985 7.89157353 113.39247985 9.41554263 113.39784521 C12.79124062 113.40723476 16.16676893 113.40221655 19.54247445 113.39737737 C21.97157134 113.40110983 24.40066703 113.40570971 26.82976079 113.41110802 C32.1310521 113.42082899 37.432293 113.42424629 42.73358887 113.42219579 C50.61663926 113.4191541 58.499649 113.42745124 66.3826915 113.43794504 C81.27858297 113.45731938 96.1744607 113.46291453 111.07036328 113.46405916 C122.57010323 113.46497706 134.06983777 113.46908753 145.56957597 113.47546041 C148.87572117 113.4772554 152.18186638 113.47903503 155.4880116 113.48081017 C156.3098483 113.48125226 157.131685 113.48169436 157.97842584 113.48214985 C181.10510088 113.4944637 204.23177404 113.50235042 227.3584525 113.50146329 C228.2309495 113.50143214 229.10344651 113.50140098 230.00238282 113.50136888 C234.4249048 113.50120265 238.84742679 113.50100457 243.26994877 113.50079946 C244.14833196 113.50075957 245.02671516 113.50071968 245.93171602 113.50067858 C247.7080216 113.50059771 249.48432718 113.50051411 251.26063276 113.5004278 C278.90611977 113.49920189 306.55155775 113.51422062 334.19703072 113.54157293 C365.23139238 113.57226528 396.26572181 113.58950716 427.30009961 113.58764648 C430.60655918 113.58749721 433.91301874 113.58739981 437.21947831 113.58733785 C438.03365867 113.58731454 438.84783904 113.58729123 439.68669153 113.58726722 C452.81339162 113.58720556 465.9400493 113.60000056 479.06673677 113.61720238 C492.24916512 113.63412049 505.43153113 113.63616279 518.61396431 113.62298374 C526.45409247 113.61556907 534.29403175 113.61932712 542.13414007 113.63886842 C547.97560331 113.65220293 553.81691697 113.64482622 559.65837867 113.62912197 C562.03117069 113.62602396 564.40398286 113.62978825 566.77675115 113.64084212 C569.98459454 113.65480491 573.19143938 113.64450215 576.39924687 113.62772977 C577.3357536 113.63766613 578.27226033 113.64760249 579.23714605 113.65783995 C584.0614799 113.71526715 584.0614799 113.71526715 588.05907178 111.34884071 C589.2125775 108.91162457 589.2125775 108.91162457 588.96143502 105.12995183 C392.94143502 105.12995183 196.92143502 105.12995183 -5.03856498 105.12995183 Z " fill="#431412" transform="translate(10.03856498003006,-0.1299518346786499)"/>
</svg>
