<svg xmlns="http://www.w3.org/2000/svg" xmlns:xlink="http://www.w3.org/1999/xlink" width="170.673" height="35.211" viewBox="0 0 170.673 35.211">
  <defs>
    <clipPath id="clip-path">
      <rect id="Rectangle_300" data-name="Rectangle 300" width="170.673" height="35.211" transform="translate(0 0)" fill="none"/>
    </clipPath>
  </defs>
  <g id="Group_91" data-name="Group 91" transform="translate(0 0)">
    <path id="Path_147" data-name="Path 147" d="M154.928,29.169H92.956V8.366h61.972ZM17.444,26.83H74.8V10.719H17.444Zm59.671,2.339H15.143V8.366H77.115Z" fill="none" stroke="#330f10" stroke-linecap="round" stroke-linejoin="round" stroke-width="0.75"/>
    <rect id="Rectangle_298" data-name="Rectangle 298" width="57.355" height="16.109" transform="translate(95.26 10.721)" fill="none" stroke="#330f10" stroke-linecap="round" stroke-linejoin="round" stroke-width="0.75"/>
    <g id="Group_90" data-name="Group 90">
      <g id="Group_89" data-name="Group 89" clip-path="url(#clip-path)">
        <path id="Path_148" data-name="Path 148" d="M72.518,17.678v-4.5a.153.153,0,0,0-.044-.119.207.207,0,0,0-.134-.081H61.233a.2.2,0,0,0-.187.2v4.5a.162.162,0,0,0,.056.134.238.238,0,0,0,.131.056H72.34a.381.381,0,0,0,.134-.056.216.216,0,0,0,.044-.134" fill="#330f10"/>
        <path id="Path_149" data-name="Path 149" d="M72.518,19.862v4.5a.25.25,0,0,1-.044.148.23.23,0,0,1-.134.039H61.233a.182.182,0,0,1-.187-.187v-4.5a.188.188,0,0,1,.056-.133.216.216,0,0,1,.131-.053H72.34a.322.322,0,0,1,.134.053.262.262,0,0,1,.044.133" fill="#330f10"/>
        <path id="Path_150" data-name="Path 150" d="M58.763,17.678v-4.5c0-.049,0-.1-.052-.119a.146.146,0,0,0-.133-.081h-11.1a.2.2,0,0,0-.179.2v4.5a.172.172,0,0,0,.057.134.248.248,0,0,0,.122.056h11.1a.211.211,0,0,0,.133-.056.146.146,0,0,0,.052-.134" fill="#330f10"/>
        <path id="Path_151" data-name="Path 151" d="M58.763,19.862v4.5a.162.162,0,0,1-.185.187h-11.1a.178.178,0,0,1-.179-.187v-4.5a.2.2,0,0,1,.057-.133.22.22,0,0,1,.122-.053h11.1a.2.2,0,0,1,.133.053.164.164,0,0,1,.052.133" fill="#330f10"/>
        <path id="Path_152" data-name="Path 152" d="M45.019,17.678v-4.5a.134.134,0,0,0-.052-.119.175.175,0,0,0-.13-.081h-11.1a.209.209,0,0,0-.2.2v4.5a.164.164,0,0,0,.067.134.2.2,0,0,0,.131.056h11.1a.289.289,0,0,0,.13-.056.182.182,0,0,0,.052-.134" fill="#330f10"/>
        <path id="Path_153" data-name="Path 153" d="M45.019,19.862v4.5a.209.209,0,0,1-.052.148.2.2,0,0,1-.13.039h-11.1a.19.19,0,0,1-.2-.187v-4.5a.193.193,0,0,1,.067-.133.182.182,0,0,1,.131-.053h11.1a.254.254,0,0,1,.13.053.216.216,0,0,1,.052.133" fill="#330f10"/>
        <path id="Path_154" data-name="Path 154" d="M31.274,17.678v-4.5a.137.137,0,0,0-.06-.119.166.166,0,0,0-.133-.081h-11.1a.213.213,0,0,0-.2.2v4.5a.224.224,0,0,0,.054.134.328.328,0,0,0,.143.056h11.1a.262.262,0,0,0,.133-.056.186.186,0,0,0,.06-.134" fill="#330f10"/>
        <path id="Path_155" data-name="Path 155" d="M31.274,19.862v4.5a.211.211,0,0,1-.06.148.19.19,0,0,1-.133.039h-11.1a.193.193,0,0,1-.2-.187v-4.5a.284.284,0,0,1,.054-.133.291.291,0,0,1,.143-.053h11.1a.235.235,0,0,1,.133.053.225.225,0,0,1,.06.133" fill="#330f10"/>
        <path id="Path_156" data-name="Path 156" d="M150.31,17.678v-4.5a.153.153,0,0,0-.044-.119.207.207,0,0,0-.134-.081H139.025a.2.2,0,0,0-.187.2v4.5a.162.162,0,0,0,.056.134.238.238,0,0,0,.131.056h11.107a.381.381,0,0,0,.134-.056.216.216,0,0,0,.044-.134" fill="#330f10"/>
        <path id="Path_157" data-name="Path 157" d="M150.31,19.862v4.5a.25.25,0,0,1-.044.148.23.23,0,0,1-.134.039H139.025a.182.182,0,0,1-.187-.187v-4.5a.188.188,0,0,1,.056-.133.216.216,0,0,1,.131-.053h11.107a.322.322,0,0,1,.134.053.262.262,0,0,1,.044.133" fill="#330f10"/>
        <path id="Path_158" data-name="Path 158" d="M136.555,17.678v-4.5c0-.049,0-.1-.052-.119a.146.146,0,0,0-.133-.081h-11.1a.2.2,0,0,0-.179.2v4.5a.172.172,0,0,0,.057.134.244.244,0,0,0,.122.056h11.1a.211.211,0,0,0,.133-.056.146.146,0,0,0,.052-.134" fill="#330f10"/>
        <path id="Path_159" data-name="Path 159" d="M136.555,19.862v4.5a.162.162,0,0,1-.185.187h-11.1a.178.178,0,0,1-.179-.187v-4.5a.2.2,0,0,1,.057-.133.217.217,0,0,1,.122-.053h11.1a.2.2,0,0,1,.133.053.164.164,0,0,1,.052.133" fill="#330f10"/>
        <path id="Path_160" data-name="Path 160" d="M122.811,17.678v-4.5a.134.134,0,0,0-.052-.119.175.175,0,0,0-.13-.081h-11.1a.208.208,0,0,0-.2.2v4.5a.164.164,0,0,0,.067.134.194.194,0,0,0,.129.056h11.1a.289.289,0,0,0,.13-.056.182.182,0,0,0,.052-.134" fill="#330f10"/>
        <path id="Path_161" data-name="Path 161" d="M122.811,19.862v4.5a.209.209,0,0,1-.052.148.2.2,0,0,1-.13.039h-11.1a.189.189,0,0,1-.2-.187v-4.5a.193.193,0,0,1,.067-.133.18.18,0,0,1,.129-.053h11.1a.254.254,0,0,1,.13.053.216.216,0,0,1,.052.133" fill="#330f10"/>
        <path id="Path_162" data-name="Path 162" d="M109.066,17.678v-4.5a.139.139,0,0,0-.06-.119.169.169,0,0,0-.133-.081h-11.1a.213.213,0,0,0-.2.2v4.5a.224.224,0,0,0,.054.134.328.328,0,0,0,.143.056h11.1a.269.269,0,0,0,.133-.056.19.19,0,0,0,.06-.134" fill="#330f10"/>
        <path id="Path_163" data-name="Path 163" d="M109.066,19.862v4.5a.216.216,0,0,1-.06.148.193.193,0,0,1-.133.039h-11.1a.193.193,0,0,1-.2-.187v-4.5a.284.284,0,0,1,.054-.133.291.291,0,0,1,.143-.053h11.1a.241.241,0,0,1,.133.053.232.232,0,0,1,.06.133" fill="#330f10"/>
        <path id="Rectangle_299" data-name="Rectangle 299" d="M1.8,0H167.87a1.8,1.8,0,0,1,1.8,1.8v30.6a1.8,1.8,0,0,1-1.8,1.8H1.8a1.8,1.8,0,0,1-1.8-1.8V1.8A1.8,1.8,0,0,1,1.8,0Z" transform="translate(0.5 0.5)" fill="none" stroke="#330f10" stroke-miterlimit="10" stroke-width="1"/>
      </g>
    </g>
  </g>
</svg>
