<svg xmlns="http://www.w3.org/2000/svg" xmlns:xlink="http://www.w3.org/1999/xlink" width="170.673" height="35.211" viewBox="0 0 170.673 35.211">
  <defs>
    <clipPath id="clip-path">
      <rect id="Rectangle_230" data-name="Rectangle 230" width="170.673" height="35.211" transform="translate(0 0)" fill="none"/>
    </clipPath>
  </defs>
  <g id="Group_162" data-name="Group 162" transform="translate(-20.327 -2699.684)">
    <g id="Group_159" data-name="Group 159" transform="translate(145.398 2713.433)">
      <rect id="Rectangle_227" data-name="Rectangle 227" width="30.716" height="7.714" fill="#330f10" stroke="#330f10" stroke-linecap="round" stroke-linejoin="round" stroke-width="0.75"/>
      <rect id="Rectangle_228" data-name="Rectangle 228" width="27.426" height="4.502" transform="translate(1.642 1.608)" fill="#fff"/>
    </g>
    <g id="Group_160" data-name="Group 160" transform="translate(90.142 2713.433)">
      <rect id="Rectangle_227-2" data-name="Rectangle 227" width="30.716" height="7.714" transform="translate(0)" fill="#330f10" stroke="#330f10" stroke-linecap="round" stroke-linejoin="round" stroke-width="0.75"/>
      <rect id="Rectangle_228-2" data-name="Rectangle 228" width="27.426" height="4.502" transform="translate(1.642 1.608)" fill="#fff"/>
    </g>
    <g id="Group_161" data-name="Group 161" transform="translate(34.886 2713.433)">
      <rect id="Rectangle_227-3" data-name="Rectangle 227" width="30.716" height="7.714" transform="translate(0)" fill="#330f10" stroke="#330f10" stroke-linecap="round" stroke-linejoin="round" stroke-width="0.75"/>
      <rect id="Rectangle_228-3" data-name="Rectangle 228" width="27.426" height="4.502" transform="translate(1.642 1.608)" fill="#fff"/>
    </g>
    <g id="Group_60" data-name="Group 60" transform="translate(20.327 2699.685)">
      <g id="Group_59" data-name="Group 59" clip-path="url(#clip-path)">
        <path id="Rectangle_229" data-name="Rectangle 229" d="M1.8,0H167.87a1.8,1.8,0,0,1,1.8,1.8v30.6a1.8,1.8,0,0,1-1.8,1.8H1.8a1.8,1.8,0,0,1-1.8-1.8V1.8A1.8,1.8,0,0,1,1.8,0Z" transform="translate(0.5 0.5)" fill="none" stroke="#330f10" stroke-miterlimit="10" stroke-width="1"/>
      </g>
    </g>
  </g>
</svg>
