<svg xmlns="http://www.w3.org/2000/svg" xmlns:xlink="http://www.w3.org/1999/xlink" width="170.673" height="35.211" viewBox="0 0 170.673 35.211">
  <defs>
    <clipPath id="clip-path">
      <rect id="Rectangle_249" data-name="Rectangle 249" width="170.673" height="35.211" transform="translate(0 0)" fill="none"/>
    </clipPath>
  </defs>
  <g id="Group_67" data-name="Group 67" transform="translate(0 0)">
    <path id="Path_37" data-name="Path 37" d="M11.1,29.375H42.378V8.519H11.1Zm0,0H42.378V8.519H11.1Z" fill="none" stroke="#330f10" stroke-linecap="round" stroke-linejoin="round" stroke-width="0.75"/>
    <rect id="Rectangle_241" data-name="Rectangle 241" width="25.988" height="15.644" transform="translate(13.743 11.128)" fill="none" stroke="#330f10" stroke-linecap="round" stroke-linejoin="round" stroke-width="0.75"/>
    <g id="Group_66" data-name="Group 66">
      <g id="Group_65" data-name="Group 65" clip-path="url(#clip-path)">
        <path id="Path_38" data-name="Path 38" d="M25.819,17.882v-4.51a.238.238,0,0,0-.058-.14.23.23,0,0,0-.141-.052H15.955a.2.2,0,0,0-.2.192v4.51a.2.2,0,0,0,.063.139.193.193,0,0,0,.133.058H25.62a.2.2,0,0,0,.2-.2" fill="#330f10"/>
        <path id="Path_39" data-name="Path 39" d="M37.7,17.882v-4.51a.215.215,0,0,0-.058-.14.228.228,0,0,0-.14-.052H27.839a.2.2,0,0,0-.2.192v4.51a.205.205,0,0,0,.2.2h9.667a.207.207,0,0,0,.14-.058.192.192,0,0,0,.058-.139" fill="#330f10"/>
        <path id="Path_40" data-name="Path 40" d="M27.666,20.082v4.511a.212.212,0,0,0,.047.144.248.248,0,0,0,.145.052h9.664a.2.2,0,0,0,.2-.2V20.082a.146.146,0,0,0-.054-.126.182.182,0,0,0-.142-.066H27.858a.187.187,0,0,0-.145.066.148.148,0,0,0-.047.126" fill="#330f10"/>
        <path id="Path_41" data-name="Path 41" d="M25.819,20.082v4.511a.239.239,0,0,1-.058.144.243.243,0,0,1-.141.052H15.955a.2.2,0,0,1-.2-.2V20.082a.157.157,0,0,1,.063-.126.169.169,0,0,1,.133-.066H25.62a.183.183,0,0,1,.141.066.163.163,0,0,1,.058.126" fill="#330f10"/>
        <rect id="Rectangle_242" data-name="Rectangle 242" width="31.278" height="20.856" transform="translate(50.037 8.519)" fill="none" stroke="#330f10" stroke-linecap="round" stroke-linejoin="round" stroke-width="0.75"/>
        <rect id="Rectangle_243" data-name="Rectangle 243" width="25.988" height="15.644" transform="translate(52.679 11.128)" fill="none" stroke="#330f10" stroke-linecap="round" stroke-linejoin="round" stroke-width="0.75"/>
        <path id="Path_42" data-name="Path 42" d="M64.756,17.882v-4.51a.238.238,0,0,0-.058-.14.23.23,0,0,0-.141-.052H54.892a.2.2,0,0,0-.2.192v4.51a.2.2,0,0,0,.063.139.193.193,0,0,0,.133.058h9.665a.2.2,0,0,0,.2-.2" fill="#330f10"/>
        <path id="Path_43" data-name="Path 43" d="M76.641,17.882v-4.51a.215.215,0,0,0-.058-.14.228.228,0,0,0-.14-.052H66.776a.2.2,0,0,0-.2.192v4.51a.205.205,0,0,0,.2.2h9.667a.207.207,0,0,0,.14-.058.192.192,0,0,0,.058-.139" fill="#330f10"/>
        <path id="Path_44" data-name="Path 44" d="M66.6,20.082v4.511a.212.212,0,0,0,.047.144.248.248,0,0,0,.145.052h9.664a.2.2,0,0,0,.2-.2V20.082a.146.146,0,0,0-.054-.126.182.182,0,0,0-.142-.066H66.795a.187.187,0,0,0-.145.066.148.148,0,0,0-.047.126" fill="#330f10"/>
        <path id="Path_45" data-name="Path 45" d="M64.756,20.082v4.511a.239.239,0,0,1-.058.144.243.243,0,0,1-.141.052H54.892a.2.2,0,0,1-.2-.2V20.082a.157.157,0,0,1,.063-.126.169.169,0,0,1,.133-.066h9.665a.183.183,0,0,1,.141.066.163.163,0,0,1,.058.126" fill="#330f10"/>
        <rect id="Rectangle_244" data-name="Rectangle 244" width="31.278" height="20.856" transform="translate(89.233 8.519)" fill="none" stroke="#330f10" stroke-linecap="round" stroke-linejoin="round" stroke-width="0.75"/>
        <rect id="Rectangle_245" data-name="Rectangle 245" width="25.988" height="15.644" transform="translate(91.874 11.128)" fill="none" stroke="#330f10" stroke-linecap="round" stroke-linejoin="round" stroke-width="0.75"/>
        <path id="Path_46" data-name="Path 46" d="M103.952,17.882v-4.51a.238.238,0,0,0-.058-.14.23.23,0,0,0-.141-.052H94.088a.2.2,0,0,0-.2.192v4.51a.2.2,0,0,0,.063.139.193.193,0,0,0,.133.058h9.665a.2.2,0,0,0,.2-.2" fill="#330f10"/>
        <path id="Path_47" data-name="Path 47" d="M115.837,17.882v-4.51a.215.215,0,0,0-.058-.14.228.228,0,0,0-.14-.052h-9.667a.2.2,0,0,0-.2.192v4.51a.205.205,0,0,0,.2.2h9.667a.207.207,0,0,0,.14-.058.192.192,0,0,0,.058-.139" fill="#330f10"/>
        <path id="Path_48" data-name="Path 48" d="M105.8,20.082v4.511a.212.212,0,0,0,.047.144.248.248,0,0,0,.145.052h9.664a.2.2,0,0,0,.2-.2V20.082a.146.146,0,0,0-.054-.126.182.182,0,0,0-.142-.066h-9.664a.187.187,0,0,0-.145.066.148.148,0,0,0-.047.126" fill="#330f10"/>
        <path id="Path_49" data-name="Path 49" d="M103.952,20.082v4.511a.239.239,0,0,1-.058.144.243.243,0,0,1-.141.052H94.088a.2.2,0,0,1-.2-.2V20.082a.157.157,0,0,1,.063-.126.169.169,0,0,1,.133-.066h9.665a.183.183,0,0,1,.141.066.163.163,0,0,1,.058.126" fill="#330f10"/>
        <rect id="Rectangle_246" data-name="Rectangle 246" width="31.278" height="20.856" transform="translate(128.295 8.519)" fill="none" stroke="#330f10" stroke-linecap="round" stroke-linejoin="round" stroke-width="0.75"/>
        <rect id="Rectangle_247" data-name="Rectangle 247" width="25.988" height="15.644" transform="translate(130.938 11.128)" fill="none" stroke="#330f10" stroke-linecap="round" stroke-linejoin="round" stroke-width="0.75"/>
        <path id="Path_50" data-name="Path 50" d="M143.014,17.882v-4.51a.238.238,0,0,0-.058-.14.23.23,0,0,0-.141-.052H133.15a.2.2,0,0,0-.195.192v4.51a.2.2,0,0,0,.062.139.193.193,0,0,0,.133.058h9.665a.2.2,0,0,0,.2-.2" fill="#330f10"/>
        <path id="Path_51" data-name="Path 51" d="M154.9,17.882v-4.51a.215.215,0,0,0-.058-.14.228.228,0,0,0-.14-.052h-9.667a.2.2,0,0,0-.2.192v4.51a.205.205,0,0,0,.2.2H154.7a.207.207,0,0,0,.14-.058.192.192,0,0,0,.058-.139" fill="#330f10"/>
        <path id="Path_52" data-name="Path 52" d="M144.861,20.082v4.511a.212.212,0,0,0,.047.144.249.249,0,0,0,.147.052h9.662a.2.2,0,0,0,.2-.2V20.082a.146.146,0,0,0-.054-.126.182.182,0,0,0-.142-.066h-9.662a.188.188,0,0,0-.147.066.148.148,0,0,0-.047.126" fill="#330f10"/>
        <path id="Path_53" data-name="Path 53" d="M143.014,20.082v4.511a.239.239,0,0,1-.058.144.243.243,0,0,1-.141.052H133.15a.2.2,0,0,1-.195-.2V20.082a.157.157,0,0,1,.062-.126.169.169,0,0,1,.133-.066h9.665a.183.183,0,0,1,.141.066.163.163,0,0,1,.058.126" fill="#330f10"/>
        <path id="Rectangle_248" data-name="Rectangle 248" d="M1.8,0H167.87a1.8,1.8,0,0,1,1.8,1.8v30.6a1.8,1.8,0,0,1-1.8,1.8H1.8a1.8,1.8,0,0,1-1.8-1.8V1.8A1.8,1.8,0,0,1,1.8,0Z" transform="translate(0.5 0.5)" fill="none" stroke="#330f10" stroke-miterlimit="10" stroke-width="1"/>
      </g>
    </g>
  </g>
</svg>
