<svg xmlns="http://www.w3.org/2000/svg" xmlns:xlink="http://www.w3.org/1999/xlink" width="169" height="35.211" viewBox="0 0 169 35.211">
  <defs>
    <clipPath id="clip-path">
      <rect id="Rectangle_288" data-name="Rectangle 288" width="169" height="35.211" fill="none"/>
    </clipPath>
  </defs>
  <g id="Group_82" data-name="Group 82" transform="translate(0 0)">
    <rect id="Rectangle_277" data-name="Rectangle 277" width="167.955" height="33.895" transform="translate(0.068 0.749)" fill="#fff"/>
    <rect id="Rectangle_278" data-name="Rectangle 278" width="31.236" height="20.828" transform="translate(10.738 7.282)" fill="none" stroke="#6d6f72" stroke-linecap="round" stroke-linejoin="round" stroke-width="0.417"/>
    <rect id="Rectangle_279" data-name="Rectangle 279" width="31.236" height="20.828" transform="translate(10.738 7.282)" fill="none" stroke="#330f10" stroke-linecap="round" stroke-linejoin="round" stroke-width="0.75"/>
    <rect id="Rectangle_280" data-name="Rectangle 280" width="25.952" height="15.623" transform="translate(13.377 9.887)" fill="none" stroke="#330f10" stroke-linecap="round" stroke-linejoin="round" stroke-width="0.75"/>
    <rect id="Rectangle_281" data-name="Rectangle 281" width="31.236" height="20.828" transform="translate(49.027 7.282)" fill="none" stroke="#330f10" stroke-linecap="round" stroke-linejoin="round" stroke-width="0.75"/>
    <rect id="Rectangle_282" data-name="Rectangle 282" width="25.952" height="15.623" transform="translate(51.657 9.887)" fill="none" stroke="#330f10" stroke-linecap="round" stroke-linejoin="round" stroke-width="0.75"/>
    <rect id="Rectangle_283" data-name="Rectangle 283" width="31.236" height="20.828" transform="translate(126.1 7.282)" fill="none" stroke="#330f10" stroke-linecap="round" stroke-linejoin="round" stroke-width="0.75"/>
    <rect id="Rectangle_284" data-name="Rectangle 284" width="25.952" height="15.623" transform="translate(128.745 9.887)" fill="none" stroke="#330f10" stroke-linecap="round" stroke-linejoin="round" stroke-width="0.75"/>
    <g id="Group_81" data-name="Group 81" transform="translate(0 0)">
      <g id="Group_80" data-name="Group 80" clip-path="url(#clip-path)">
        <path id="Path_116" data-name="Path 116" d="M37.156,23.386V19.3a.1.1,0,0,0-.08-.1L22.987,17.5a.075.075,0,0,0-.063.013,19.546,19.546,0,0,0-5.214,5.367.386.386,0,0,0-.008.392.359.359,0,0,0,.338.2H37.067a.093.093,0,0,0,.061-.029.075.075,0,0,0,.028-.065" transform="translate(-0.173 0)" fill="#330f10"/>
        <path id="Path_117" data-name="Path 117" d="M37.15,13.046A28,28,0,0,0,26.29,15.577a.1.1,0,0,0-.055.1.105.105,0,0,0,.083.082l10.815,1.307a.072.072,0,0,0,.074-.027.086.086,0,0,0,.032-.071V13.147a.106.106,0,0,0-.028-.073.108.108,0,0,0-.061-.028" transform="translate(-0.257 0)" fill="#330f10"/>
        <path id="Path_118" data-name="Path 118" d="M54.4,18.654l16.737,2.028a.118.118,0,0,0,.077-.034,7.853,7.853,0,0,1,.875-.783.089.089,0,0,0,.039-.08.081.081,0,0,0-.044-.078l-11.666-7.49a.078.078,0,0,0-.056-.015c-1.983.115-3.973.261-5.951.43a.1.1,0,0,0-.092.1v5.828a.1.1,0,0,0,.08.1" transform="translate(-0.532 0)" fill="#330f10"/>
        <path id="Path_119" data-name="Path 119" d="M74.5,18.641a7.51,7.51,0,0,1,1.41-.32.1.1,0,0,0,.085-.1V11.888a.09.09,0,0,0-.094-.094q-5.753-.04-11.482.2a.087.087,0,0,0-.089.072.1.1,0,0,0,.039.108l10.051,6.45a.111.111,0,0,0,.08.012" transform="translate(-0.631 0)" fill="#330f10"/>
        <path id="Path_120" data-name="Path 120" d="M54.38,23.48a.094.094,0,0,1-.1-.094v-2.5a.1.1,0,0,1,.109-.1l15.3,1.829a.107.107,0,0,1,.068.054.068.068,0,0,1,0,.087c-.1.216-.188.432-.274.662a.08.08,0,0,1-.082.058Z" transform="translate(-0.532 0)" fill="#330f10"/>
        <path id="Path_121" data-name="Path 121" d="M132.4,23.386V19.3a.1.1,0,0,1,.08-.1l14.088-1.7a.076.076,0,0,1,.064.013,19.546,19.546,0,0,1,5.214,5.367.386.386,0,0,1,.008.392.36.36,0,0,1-.339.2H132.487a.091.091,0,0,1-.061-.029.075.075,0,0,1-.028-.065" transform="translate(-1.298 0)" fill="#330f10"/>
        <path id="Path_122" data-name="Path 122" d="M132.488,13.046a28,28,0,0,1,10.859,2.531.1.1,0,0,1,.055.1.105.105,0,0,1-.083.082L132.5,17.069a.072.072,0,0,1-.074-.027.086.086,0,0,1-.032-.071V13.147a.106.106,0,0,1,.028-.073.108.108,0,0,1,.061-.028" transform="translate(-1.298 0)" fill="#330f10"/>
        <path id="Path_123" data-name="Path 123" d="M115.049,18.654,98.311,20.682a.118.118,0,0,1-.077-.034,7.853,7.853,0,0,0-.875-.783.089.089,0,0,1-.039-.08.081.081,0,0,1,.044-.078l11.666-7.49a.078.078,0,0,1,.056-.015c1.983.115,3.973.261,5.951.43a.1.1,0,0,1,.092.1v5.828a.1.1,0,0,1-.08.1" transform="translate(-0.954 0)" fill="#330f10"/>
        <path id="Path_124" data-name="Path 124" d="M95.01,18.641a7.51,7.51,0,0,0-1.41-.32.1.1,0,0,1-.085-.1V11.888a.09.09,0,0,1,.094-.094q5.753-.04,11.482.2a.086.086,0,0,1,.089.072.1.1,0,0,1-.038.108L95.09,18.629a.111.111,0,0,1-.08.012" transform="translate(-0.917 0)" fill="#330f10"/>
        <path id="Path_125" data-name="Path 125" d="M115.09,23.48a.094.094,0,0,0,.1-.094v-2.5a.1.1,0,0,0-.109-.1l-15.3,1.829a.1.1,0,0,0-.068.054.068.068,0,0,0,0,.087c.1.216.188.432.273.662a.08.08,0,0,0,.083.058Z" transform="translate(-0.977 0)" fill="#330f10"/>
        <rect id="Rectangle_285" data-name="Rectangle 285" width="30.93" height="20.828" transform="translate(87.895 7.282)" fill="none" stroke="#330f10" stroke-linecap="round" stroke-linejoin="round" stroke-width="0.75"/>
        <rect id="Rectangle_286" data-name="Rectangle 286" width="25.698" height="15.623" transform="translate(90.514 9.887)" fill="none" stroke="#330f10" stroke-linecap="round" stroke-linejoin="round" stroke-width="0.75"/>
        <path id="Rectangle_287" data-name="Rectangle 287" d="M1.8,0h164.4a1.8,1.8,0,0,1,1.8,1.8v30.6a1.8,1.8,0,0,1-1.8,1.8H1.8a1.8,1.8,0,0,1-1.8-1.8V1.8A1.8,1.8,0,0,1,1.8,0Z" transform="translate(0.495 0.5)" fill="none" stroke="#330f10" stroke-miterlimit="10" stroke-width="1"/>
      </g>
    </g>
  </g>
</svg>
