<svg xmlns="http://www.w3.org/2000/svg" xmlns:xlink="http://www.w3.org/1999/xlink" width="169" height="35.211" viewBox="0 0 169 35.211">
  <defs>
    <clipPath id="clip-path">
      <rect id="Rectangle_321" data-name="Rectangle 321" width="169" height="35.211" fill="none"/>
    </clipPath>
  </defs>
  <g id="Group_112" data-name="Group 112" transform="translate(0 0)">
    <path id="Path_236" data-name="Path 236" d="M151.176,27.868h-60.4V7.344h60.4Zm-134-2.308h55.9V9.665h-55.9Zm58.158,2.308h-60.4V7.344h60.4Z" fill="none" stroke="#330f10" stroke-linecap="round" stroke-linejoin="round" stroke-width="0.75"/>
    <rect id="Rectangle_319" data-name="Rectangle 319" width="56.588" height="15.894" transform="translate(92.306 9.666)" fill="none" stroke="#330f10" stroke-linecap="round" stroke-linejoin="round" stroke-width="0.75"/>
    <g id="Group_111" data-name="Group 111" transform="translate(0 0)">
      <g id="Group_110" data-name="Group 110" clip-path="url(#clip-path)">
        <path id="Path_237" data-name="Path 237" d="M26.276,19.653a28.382,28.382,0,0,1,4.3-2.322.352.352,0,0,1,.114-.011l33.5,5.932a.2.2,0,0,1,.16.093.229.229,0,0,1,0,.2.175.175,0,0,1-.16.095h-41.2a.363.363,0,0,1-.319-.213.4.4,0,0,1,.031-.4,12.788,12.788,0,0,1,3.578-3.371" transform="translate(-0.222 0)" fill="#330f10"/>
        <path id="Path_238" data-name="Path 238" d="M35.206,15.632a.181.181,0,0,0-.13.192.177.177,0,0,0,.154.187l31.591,5.6a.133.133,0,0,0,.122-.025l.784-.479a.171.171,0,0,0,.093-.175.2.2,0,0,0-.113-.171L50.236,12.539a.235.235,0,0,0-.094-.021,81.964,81.964,0,0,0-14.936,3.114" transform="translate(-0.344 0)" fill="#330f10"/>
        <path id="Path_239" data-name="Path 239" d="M55.052,12.064a.161.161,0,0,0-.154.155.185.185,0,0,0,.1.215l15.612,7.35a.127.127,0,0,0,.085.016l1.17-.109a.19.19,0,0,0,.175-.2V11.9a.167.167,0,0,0-.052-.13.183.183,0,0,0-.131-.06H64.251q-4.607,0-9.2.353" transform="translate(-0.538 0)" fill="#330f10"/>
        <path id="Path_240" data-name="Path 240" d="M141.082,19.653a28.382,28.382,0,0,0-4.3-2.322.359.359,0,0,0-.116-.011l-33.494,5.932a.2.2,0,0,0-.16.093.229.229,0,0,0,0,.2.175.175,0,0,0,.16.095h41.2a.363.363,0,0,0,.319-.213.4.4,0,0,0-.031-.4,12.788,12.788,0,0,0-3.578-3.371" transform="translate(-1.01 0)" fill="#330f10"/>
        <path id="Path_241" data-name="Path 241" d="M132.241,15.632a.183.183,0,0,1,.13.192.177.177,0,0,1-.155.187l-31.59,5.6a.133.133,0,0,1-.122-.025l-.784-.479a.171.171,0,0,1-.093-.175.2.2,0,0,1,.113-.171l17.472-8.223a.235.235,0,0,1,.094-.021,81.964,81.964,0,0,1,14.936,3.114" transform="translate(-0.977 0)" fill="#330f10"/>
        <path id="Path_242" data-name="Path 242" d="M112.549,12.064a.161.161,0,0,1,.154.155.185.185,0,0,1-.1.215l-15.611,7.35a.127.127,0,0,1-.085.016l-1.17-.109a.19.19,0,0,1-.175-.2V11.9a.167.167,0,0,1,.052-.13.183.183,0,0,1,.131-.06h7.606q4.607,0,9.2.353" transform="translate(-0.937 0)" fill="#330f10"/>
        <path id="Rectangle_320" data-name="Rectangle 320" d="M1.8,0h164.4a1.8,1.8,0,0,1,1.8,1.8v30.6a1.8,1.8,0,0,1-1.8,1.8H1.8a1.8,1.8,0,0,1-1.8-1.8V1.8A1.8,1.8,0,0,1,1.8,0Z" transform="translate(0.495 0.5)" fill="none" stroke="#330f10" stroke-miterlimit="10" stroke-width="1"/>
      </g>
    </g>
  </g>
</svg>
