<svg xmlns="http://www.w3.org/2000/svg" xmlns:xlink="http://www.w3.org/1999/xlink" width="170.673" height="35.211" viewBox="0 0 170.673 35.211">
  <defs>
    <clipPath id="clip-path">
      <rect id="Rectangle_260" data-name="Rectangle 260" width="170.673" height="35.211" transform="translate(0 0)" fill="none"/>
    </clipPath>
  </defs>
  <g id="Group_73" data-name="Group 73" transform="translate(0 0)">
    <path id="Path_62" data-name="Path 62" d="M11.1,28.6H42.378V7.747H11.1Zm0,0H42.378V7.747H11.1Z" fill="none" stroke="#330f10" stroke-linecap="round" stroke-linejoin="round" stroke-width="0.75"/>
    <rect id="Rectangle_252" data-name="Rectangle 252" width="25.988" height="15.644" transform="translate(13.742 10.359)" fill="none" stroke="#330f10" stroke-linecap="round" stroke-linejoin="round" stroke-width="0.75"/>
    <rect id="Rectangle_253" data-name="Rectangle 253" width="31.278" height="20.858" transform="translate(50.037 7.747)" fill="none" stroke="#330f10" stroke-linecap="round" stroke-linejoin="round" stroke-width="0.75"/>
    <rect id="Rectangle_254" data-name="Rectangle 254" width="25.988" height="15.644" transform="translate(52.684 10.359)" fill="none" stroke="#330f10" stroke-linecap="round" stroke-linejoin="round" stroke-width="0.75"/>
    <rect id="Rectangle_255" data-name="Rectangle 255" width="31.278" height="20.858" transform="translate(89.233 7.747)" fill="none" stroke="#330f10" stroke-linecap="round" stroke-linejoin="round" stroke-width="0.75"/>
    <rect id="Rectangle_256" data-name="Rectangle 256" width="25.988" height="15.644" transform="translate(91.874 10.359)" fill="none" stroke="#330f10" stroke-linecap="round" stroke-linejoin="round" stroke-width="0.75"/>
    <rect id="Rectangle_257" data-name="Rectangle 257" width="31.278" height="20.858" transform="translate(128.295 7.747)" fill="none" stroke="#330f10" stroke-linecap="round" stroke-linejoin="round" stroke-width="0.75"/>
    <rect id="Rectangle_258" data-name="Rectangle 258" width="25.988" height="15.644" transform="translate(130.943 10.359)" fill="none" stroke="#330f10" stroke-linecap="round" stroke-linejoin="round" stroke-width="0.75"/>
    <g id="Group_72" data-name="Group 72">
      <g id="Group_71" data-name="Group 71" clip-path="url(#clip-path)">
        <path id="Path_63" data-name="Path 63" d="M31.846,22.551a.114.114,0,0,1,.061.059.087.087,0,0,1,0,.077,6.5,6.5,0,0,0-.408,1.16.1.1,0,0,1-.094.075H17.091a.388.388,0,0,1-.363-.514,12.493,12.493,0,0,1,3.077-4.638.085.085,0,0,1,.1-.021Z" fill="#330f10"/>
        <path id="Path_64" data-name="Path 64" d="M29.093,13.712a.1.1,0,0,0-.1-.034,24.807,24.807,0,0,0-7.078,3.343.083.083,0,0,0-.039.09.09.09,0,0,0,.063.083l11.472,3.658a.1.1,0,0,0,.1-.02,8.518,8.518,0,0,1,.943-.681.1.1,0,0,0,.047-.064.172.172,0,0,0-.02-.082Z" fill="#330f10"/>
        <path id="Path_65" data-name="Path 65" d="M37.724,12.443a.1.1,0,0,0-.031-.07.122.122,0,0,0-.069-.028,34.828,34.828,0,0,0-6.124.691.109.109,0,0,0-.069.069.083.083,0,0,0,.015.092l5.115,5.992a.1.1,0,0,0,.1.03,7.3,7.3,0,0,1,.976-.178.108.108,0,0,0,.087-.1Z" fill="#330f10"/>
        <path id="Path_66" data-name="Path 66" d="M60.569,22.551a.111.111,0,0,0-.061.059.087.087,0,0,0,0,.077,6.5,6.5,0,0,1,.408,1.16.1.1,0,0,0,.094.075H75.323a.389.389,0,0,0,.365-.514A12.508,12.508,0,0,0,72.61,18.77a.085.085,0,0,0-.1-.021Z" fill="#330f10"/>
        <path id="Path_67" data-name="Path 67" d="M63.323,13.712a.1.1,0,0,1,.1-.034A24.807,24.807,0,0,1,70.5,17.021a.083.083,0,0,1,.039.09.09.09,0,0,1-.063.083L59.005,20.852a.1.1,0,0,1-.1-.02,8.519,8.519,0,0,0-.943-.681.1.1,0,0,1-.047-.064.172.172,0,0,1,.02-.082Z" fill="#330f10"/>
        <path id="Path_68" data-name="Path 68" d="M54.692,12.443a.1.1,0,0,1,.031-.07.122.122,0,0,1,.069-.028,34.828,34.828,0,0,1,6.124.691.109.109,0,0,1,.069.069.085.085,0,0,1-.015.092l-5.116,5.992a.093.093,0,0,1-.1.03,7.3,7.3,0,0,0-.976-.178.108.108,0,0,1-.087-.1Z" fill="#330f10"/>
        <path id="Path_69" data-name="Path 69" d="M109.979,22.551a.115.115,0,0,1,.06.059.087.087,0,0,1,0,.077,6.421,6.421,0,0,0-.407,1.16.106.106,0,0,1-.1.075H95.223a.388.388,0,0,1-.363-.514,12.493,12.493,0,0,1,3.077-4.638.085.085,0,0,1,.1-.021Z" fill="#330f10"/>
        <path id="Path_70" data-name="Path 70" d="M107.225,13.712a.1.1,0,0,0-.1-.034,24.807,24.807,0,0,0-7.078,3.343.083.083,0,0,0-.039.09.092.092,0,0,0,.063.083l11.472,3.658a.1.1,0,0,0,.1-.02,8.518,8.518,0,0,1,.943-.681.1.1,0,0,0,.047-.064.172.172,0,0,0-.02-.082Z" fill="#330f10"/>
        <path id="Path_71" data-name="Path 71" d="M115.856,12.443a.1.1,0,0,0-.031-.07.122.122,0,0,0-.069-.028,34.828,34.828,0,0,0-6.124.691.109.109,0,0,0-.069.069.083.083,0,0,0,.015.092l5.115,5.992a.1.1,0,0,0,.1.03,7.3,7.3,0,0,1,.976-.178.108.108,0,0,0,.087-.1Z" fill="#330f10"/>
        <path id="Path_72" data-name="Path 72" d="M138.827,22.551a.114.114,0,0,0-.061.059.087.087,0,0,0,0,.077,6.5,6.5,0,0,1,.408,1.16.1.1,0,0,0,.094.075h14.313a.388.388,0,0,0,.364-.514,12.5,12.5,0,0,0-3.076-4.638.087.087,0,0,0-.1-.021Z" fill="#330f10"/>
        <path id="Path_73" data-name="Path 73" d="M141.581,13.712a.1.1,0,0,1,.1-.034,24.807,24.807,0,0,1,7.078,3.343.083.083,0,0,1,.039.09.092.092,0,0,1-.063.083l-11.472,3.658a.1.1,0,0,1-.1-.02,8.517,8.517,0,0,0-.943-.681.1.1,0,0,1-.047-.064A.172.172,0,0,1,136.2,20Z" fill="#330f10"/>
        <path id="Path_74" data-name="Path 74" d="M132.949,12.443a.1.1,0,0,1,.031-.07.122.122,0,0,1,.069-.028,34.829,34.829,0,0,1,6.124.691.109.109,0,0,1,.069.069.085.085,0,0,1-.015.092l-5.116,5.992a.092.092,0,0,1-.1.03,7.3,7.3,0,0,0-.976-.178.108.108,0,0,1-.087-.1Z" fill="#330f10"/>
        <path id="Rectangle_259" data-name="Rectangle 259" d="M1.8,0H167.87a1.8,1.8,0,0,1,1.8,1.8v30.6a1.8,1.8,0,0,1-1.8,1.8H1.8a1.8,1.8,0,0,1-1.8-1.8V1.8A1.8,1.8,0,0,1,1.8,0Z" transform="translate(0.5 0.5)" fill="none" stroke="#330f10" stroke-miterlimit="10" stroke-width="1"/>
      </g>
    </g>
  </g>
</svg>
