<svg xmlns="http://www.w3.org/2000/svg" xmlns:xlink="http://www.w3.org/1999/xlink" width="170.673" height="35.211" viewBox="0 0 170.673 35.211">
  <defs>
    <clipPath id="clip-path">
      <rect id="Rectangle_312" data-name="Rectangle 312" width="170.673" height="35.211" transform="translate(0 0)" fill="none"/>
    </clipPath>
  </defs>
  <g id="Group_103" data-name="Group 103" transform="translate(0 0)">
    <path id="Path_187" data-name="Path 187" d="M155.23,28.007H93.258V7.2H155.23ZM17.746,25.668H75.1V9.557H17.746Zm59.669,2.339H15.443V7.2H77.415Z" fill="none" stroke="#330f10" stroke-linecap="round" stroke-linejoin="round" stroke-width="0.75"/>
    <rect id="Rectangle_310" data-name="Rectangle 310" width="57.355" height="16.109" transform="translate(95.562 9.559)" fill="none" stroke="#330f10" stroke-linecap="round" stroke-linejoin="round" stroke-width="0.75"/>
    <g id="Group_102" data-name="Group 102">
      <g id="Group_101" data-name="Group 101" clip-path="url(#clip-path)">
        <path id="Path_188" data-name="Path 188" d="M45.288,11.543a.188.188,0,0,1,.182.192v1.149a.188.188,0,0,1-.182.192H23.718a.188.188,0,0,1-.184-.192V11.735a.188.188,0,0,1,.184-.192Z" fill="#330f10"/>
        <path id="Path_189" data-name="Path 189" d="M68.992,20.274a.188.188,0,0,0,.182-.192V15.121a.187.187,0,0,0-.182-.191H23.717a.187.187,0,0,0-.182.191v4.961a.188.188,0,0,0,.182.192Z" fill="#330f10"/>
        <path id="Path_190" data-name="Path 190" d="M20.488,20.274a.188.188,0,0,1-.182-.192V15.121a.187.187,0,0,1,.182-.191h1.1a.187.187,0,0,1,.182.191v4.961a.188.188,0,0,1-.182.192Z" fill="#330f10"/>
        <path id="Path_191" data-name="Path 191" d="M20.488,11.543a.188.188,0,0,0-.182.192v1.149a.188.188,0,0,0,.182.192h1.1a.188.188,0,0,0,.182-.192V11.735a.188.188,0,0,0-.182-.192Z" fill="#330f10"/>
        <path id="Path_192" data-name="Path 192" d="M72.221,20.274a.188.188,0,0,0,.182-.192V15.121a.187.187,0,0,0-.182-.191h-1.1a.187.187,0,0,0-.182.191v4.961a.188.188,0,0,0,.182.192Z" fill="#330f10"/>
        <path id="Path_193" data-name="Path 193" d="M72.221,11.543a.188.188,0,0,1,.182.192v1.149a.188.188,0,0,1-.182.192h-1.1a.188.188,0,0,1-.182-.192V11.735a.188.188,0,0,1,.182-.192Z" fill="#330f10"/>
        <path id="Path_194" data-name="Path 194" d="M47.421,11.543a.188.188,0,0,0-.182.192v1.149a.188.188,0,0,0,.182.192h21.57a.188.188,0,0,0,.184-.192V11.735a.188.188,0,0,0-.184-.192Z" fill="#330f10"/>
        <path id="Path_195" data-name="Path 195" d="M45.288,23.661a.188.188,0,0,0,.182-.192V22.32a.188.188,0,0,0-.182-.192H23.718a.188.188,0,0,0-.184.192v1.149a.188.188,0,0,0,.184.192Z" fill="#330f10"/>
        <path id="Path_196" data-name="Path 196" d="M20.488,23.661a.188.188,0,0,1-.182-.192V22.32a.188.188,0,0,1,.182-.192h1.1a.188.188,0,0,1,.182.192v1.149a.188.188,0,0,1-.182.192Z" fill="#330f10"/>
        <path id="Path_197" data-name="Path 197" d="M72.221,23.661a.188.188,0,0,0,.182-.192V22.32a.188.188,0,0,0-.182-.192h-1.1a.188.188,0,0,0-.182.192v1.149a.188.188,0,0,0,.182.192Z" fill="#330f10"/>
        <path id="Path_198" data-name="Path 198" d="M47.421,23.661a.188.188,0,0,1-.182-.192V22.32a.188.188,0,0,1,.182-.192h21.57a.188.188,0,0,1,.184.192v1.149a.188.188,0,0,1-.184.192Z" fill="#330f10"/>
        <path id="Path_199" data-name="Path 199" d="M123.173,11.543a.188.188,0,0,1,.182.192v1.149a.188.188,0,0,1-.182.192H101.6a.188.188,0,0,1-.184-.192V11.735a.188.188,0,0,1,.184-.192Z" fill="#330f10"/>
        <path id="Path_200" data-name="Path 200" d="M146.877,20.274a.188.188,0,0,0,.182-.192V15.121a.187.187,0,0,0-.182-.191H101.6a.187.187,0,0,0-.182.191v4.961a.188.188,0,0,0,.182.192Z" fill="#330f10"/>
        <path id="Path_201" data-name="Path 201" d="M98.373,20.274a.187.187,0,0,1-.182-.192V15.121a.186.186,0,0,1,.182-.191h1.1a.187.187,0,0,1,.182.191v4.961a.188.188,0,0,1-.182.192Z" fill="#330f10"/>
        <path id="Path_202" data-name="Path 202" d="M98.373,11.543a.187.187,0,0,0-.182.192v1.149a.187.187,0,0,0,.182.192h1.1a.188.188,0,0,0,.182-.192V11.735a.188.188,0,0,0-.182-.192Z" fill="#330f10"/>
        <path id="Path_203" data-name="Path 203" d="M150.106,20.274a.188.188,0,0,0,.182-.192V15.121a.187.187,0,0,0-.182-.191h-1.1a.187.187,0,0,0-.182.191v4.961a.188.188,0,0,0,.182.192Z" fill="#330f10"/>
        <path id="Path_204" data-name="Path 204" d="M150.106,11.543a.188.188,0,0,1,.182.192v1.149a.188.188,0,0,1-.182.192h-1.1a.188.188,0,0,1-.182-.192V11.735a.188.188,0,0,1,.182-.192Z" fill="#330f10"/>
        <path id="Path_205" data-name="Path 205" d="M125.306,11.543a.187.187,0,0,0-.182.192v1.149a.187.187,0,0,0,.182.192h21.57a.188.188,0,0,0,.184-.192V11.735a.188.188,0,0,0-.184-.192Z" fill="#330f10"/>
        <path id="Path_206" data-name="Path 206" d="M123.173,23.661a.188.188,0,0,0,.182-.192V22.32a.188.188,0,0,0-.182-.192H101.6a.188.188,0,0,0-.184.192v1.149a.188.188,0,0,0,.184.192Z" fill="#330f10"/>
        <path id="Path_207" data-name="Path 207" d="M98.373,23.661a.187.187,0,0,1-.182-.192V22.32a.187.187,0,0,1,.182-.192h1.1a.188.188,0,0,1,.182.192v1.149a.188.188,0,0,1-.182.192Z" fill="#330f10"/>
        <path id="Path_208" data-name="Path 208" d="M150.106,23.661a.188.188,0,0,0,.182-.192V22.32a.188.188,0,0,0-.182-.192h-1.1a.188.188,0,0,0-.182.192v1.149a.188.188,0,0,0,.182.192Z" fill="#330f10"/>
        <path id="Path_209" data-name="Path 209" d="M125.306,23.661a.187.187,0,0,1-.182-.192V22.32a.187.187,0,0,1,.182-.192h21.57a.188.188,0,0,1,.184.192v1.149a.188.188,0,0,1-.184.192Z" fill="#330f10"/>
        <path id="Rectangle_311" data-name="Rectangle 311" d="M1.8,0H167.87a1.8,1.8,0,0,1,1.8,1.8v30.6a1.8,1.8,0,0,1-1.8,1.8H1.8a1.8,1.8,0,0,1-1.8-1.8V1.8A1.8,1.8,0,0,1,1.8,0Z" transform="translate(0.5 0.5)" fill="none" stroke="#330f10" stroke-miterlimit="10" stroke-width="1"/>
      </g>
    </g>
  </g>
</svg>
