<svg xmlns="http://www.w3.org/2000/svg" xmlns:xlink="http://www.w3.org/1999/xlink" width="169" height="35.211" viewBox="0 0 169 35.211">
  <defs>
    <clipPath id="clip-path">
      <rect id="Rectangle_327" data-name="Rectangle 327" width="169" height="35.211" fill="none"/>
    </clipPath>
  </defs>
  <g id="Group_121" data-name="Group 121" transform="translate(0 0)">
    <g id="Group_120" data-name="Group 120" transform="translate(0 0)" clip-path="url(#clip-path)">
      <path id="Path_243" data-name="Path 243" d="M18.145,25.355a.194.194,0,0,1-.2-.194V18.72a.2.2,0,0,1,.059-.134.21.21,0,0,1,.136-.056h12.29a.194.194,0,0,1,.139.056.189.189,0,0,1,.059.134v6.441a.175.175,0,0,1-.059.134.182.182,0,0,1-.139.06Z" transform="translate(-0.176 0)" fill="#330f10"/>
      <path id="Path_244" data-name="Path 244" d="M47.446,25.355a.2.2,0,0,1-.2-.194V18.72a.174.174,0,0,1,.062-.134.2.2,0,0,1,.136-.056h12.3a.193.193,0,0,1,.13.056.189.189,0,0,1,.059.134v6.441a.175.175,0,0,1-.059.134.181.181,0,0,1-.13.06Z" transform="translate(-0.463 0)" fill="#330f10"/>
      <path id="Path_245" data-name="Path 245" d="M74.394,25.355a.191.191,0,0,0,.186-.194V18.72a.194.194,0,0,0-.05-.134.2.2,0,0,0-.136-.056H62.1a.222.222,0,0,0-.137.056.2.2,0,0,0-.052.134v6.441a.185.185,0,0,0,.052.134.206.206,0,0,0,.137.06Z" transform="translate(-0.607 0)" fill="#330f10"/>
      <path id="Path_246" data-name="Path 246" d="M45.093,25.355a.19.19,0,0,0,.188-.194V18.72a.228.228,0,0,0-.052-.134.236.236,0,0,0-.136-.056h-12.3a.2.2,0,0,0-.13.056.189.189,0,0,0-.059.134v6.441a.175.175,0,0,0,.059.134.188.188,0,0,0,.13.06Z" transform="translate(-0.32 0)" fill="#330f10"/>
      <path id="Path_247" data-name="Path 247" d="M30.632,16.49V11.846a.224.224,0,0,0-.07-.152.236.236,0,0,0-.163-.043,72.915,72.915,0,0,0-12.332,4.028.185.185,0,0,0-.117.17v.641a.194.194,0,0,0,.058.131.19.19,0,0,0,.136.059h12.29a.2.2,0,0,0,.2-.19" transform="translate(-0.176 0)" fill="#330f10"/>
      <path id="Path_248" data-name="Path 248" d="M45.084,9.856a.192.192,0,0,1,.14.054.215.215,0,0,1,.058.141v6.44a.217.217,0,0,1-.053.13.221.221,0,0,1-.136.06h-12.3a.192.192,0,0,1-.131-.06.183.183,0,0,1-.058-.13V11.372a.192.192,0,0,1,.151-.186,71.8,71.8,0,0,1,12.329-1.33" transform="translate(-0.32 0)" fill="#330f10"/>
      <path id="Path_249" data-name="Path 249" d="M61.906,16.49V11.846a.2.2,0,0,1,.07-.152.219.219,0,0,1,.156-.043,72.77,72.77,0,0,1,12.332,4.028.187.187,0,0,1,.116.17v.641a.187.187,0,0,1-.186.19h-12.3a.2.2,0,0,1-.135-.059.185.185,0,0,1-.053-.131" transform="translate(-0.607 0)" fill="#330f10"/>
      <path id="Path_250" data-name="Path 250" d="M47.452,9.856a.2.2,0,0,0-.143.054.181.181,0,0,0-.06.141v6.44a.164.164,0,0,0,.06.13.2.2,0,0,0,.138.06h12.3a.188.188,0,0,0,.131-.06.179.179,0,0,0,.058-.13V11.372a.2.2,0,0,0-.159-.186,71.722,71.722,0,0,0-12.323-1.33" transform="translate(-0.463 0)" fill="#330f10"/>
      <path id="Path_251" data-name="Path 251" d="M96.158,25.355a.194.194,0,0,1-.2-.194V18.72a.2.2,0,0,1,.059-.134.21.21,0,0,1,.136-.056h12.29a.194.194,0,0,1,.139.056.189.189,0,0,1,.059.134v6.441a.175.175,0,0,1-.059.134.182.182,0,0,1-.139.06Z" transform="translate(-0.941 0)" fill="#330f10"/>
      <path id="Path_252" data-name="Path 252" d="M125.46,25.355a.2.2,0,0,1-.2-.194V18.72a.168.168,0,0,1,.062-.134.2.2,0,0,1,.136-.056h12.3a.193.193,0,0,1,.13.056.189.189,0,0,1,.059.134v6.441a.175.175,0,0,1-.059.134.181.181,0,0,1-.13.06Z" transform="translate(-1.228 0)" fill="#330f10"/>
      <path id="Path_253" data-name="Path 253" d="M152.408,25.355a.191.191,0,0,0,.186-.194V18.72a.194.194,0,0,0-.05-.134.2.2,0,0,0-.136-.056h-12.3a.222.222,0,0,0-.137.056.2.2,0,0,0-.052.134v6.441a.185.185,0,0,0,.052.134.206.206,0,0,0,.137.06Z" transform="translate(-1.372 0)" fill="#330f10"/>
      <path id="Path_254" data-name="Path 254" d="M123.106,25.355a.19.19,0,0,0,.188-.194V18.72a.228.228,0,0,0-.052-.134.239.239,0,0,0-.136-.056h-12.3a.2.2,0,0,0-.13.056.189.189,0,0,0-.059.134v6.441a.175.175,0,0,0,.059.134.188.188,0,0,0,.13.06Z" transform="translate(-1.084 0)" fill="#330f10"/>
      <path id="Path_255" data-name="Path 255" d="M108.646,16.49V11.846a.224.224,0,0,0-.07-.152.236.236,0,0,0-.163-.043,72.875,72.875,0,0,0-12.331,4.028.184.184,0,0,0-.118.17v.641a.185.185,0,0,0,.058.131.19.19,0,0,0,.136.059h12.29a.2.2,0,0,0,.2-.19" transform="translate(-0.941 0)" fill="#330f10"/>
      <path id="Path_256" data-name="Path 256" d="M123.1,9.856a.192.192,0,0,1,.14.054.215.215,0,0,1,.058.141v6.44a.217.217,0,0,1-.053.13.221.221,0,0,1-.136.06h-12.3a.192.192,0,0,1-.131-.06.183.183,0,0,1-.058-.13V11.372a.192.192,0,0,1,.151-.186A71.8,71.8,0,0,1,123.1,9.856" transform="translate(-1.084 0)" fill="#330f10"/>
      <path id="Path_257" data-name="Path 257" d="M139.92,16.49V11.846a.2.2,0,0,1,.07-.152.219.219,0,0,1,.156-.043,72.741,72.741,0,0,1,12.332,4.028.187.187,0,0,1,.116.17v.641a.187.187,0,0,1-.186.19h-12.3a.2.2,0,0,1-.135-.059.181.181,0,0,1-.053-.131" transform="translate(-1.372 0)" fill="#330f10"/>
      <path id="Path_258" data-name="Path 258" d="M125.465,9.856a.2.2,0,0,0-.143.054.181.181,0,0,0-.06.141v6.44a.164.164,0,0,0,.06.13.2.2,0,0,0,.138.06h12.3a.188.188,0,0,0,.131-.06.179.179,0,0,0,.058-.13V11.372a.2.2,0,0,0-.159-.186,71.722,71.722,0,0,0-12.323-1.33" transform="translate(-1.228 0)" fill="#330f10"/>
      <rect id="Rectangle_322" data-name="Rectangle 322" width="59.414" height="18.754" transform="translate(16.169 8.229)" fill="none" stroke="#330f10" stroke-linecap="round" stroke-linejoin="round" stroke-width="0.75"/>
      <rect id="Rectangle_323" data-name="Rectangle 323" width="63.54" height="22.918" transform="translate(14.106 6.147)" fill="none" stroke="#330f10" stroke-linecap="round" stroke-linejoin="round" stroke-width="0.75"/>
      <rect id="Rectangle_324" data-name="Rectangle 324" width="59.413" height="18.754" transform="translate(93.416 8.229)" fill="none" stroke="#330f10" stroke-linecap="round" stroke-linejoin="round" stroke-width="0.75"/>
      <rect id="Rectangle_325" data-name="Rectangle 325" width="63.54" height="22.918" transform="translate(91.355 6.147)" fill="none" stroke="#330f10" stroke-linecap="round" stroke-linejoin="round" stroke-width="0.75"/>
      <path id="Rectangle_326" data-name="Rectangle 326" d="M1.8,0h164.4a1.8,1.8,0,0,1,1.8,1.8v30.6a1.8,1.8,0,0,1-1.8,1.8H1.8a1.8,1.8,0,0,1-1.8-1.8V1.8A1.8,1.8,0,0,1,1.8,0Z" transform="translate(0.495 0.5)" fill="none" stroke="#330f10" stroke-miterlimit="10" stroke-width="1"/>
    </g>
  </g>
</svg>
