<svg xmlns="http://www.w3.org/2000/svg" xmlns:xlink="http://www.w3.org/1999/xlink" width="170.673" height="35.211" viewBox="0 0 170.673 35.211">
  <defs>
    <clipPath id="clip-path">
      <rect id="Rectangle_318" data-name="Rectangle 318" width="170.673" height="35.211" transform="translate(0 0)" fill="none"/>
    </clipPath>
  </defs>
  <g id="Group_109" data-name="Group 109" transform="translate(0 0)">
    <path id="Path_227" data-name="Path 227" d="M155.315,28.007H93.343V7.2h61.972ZM17.831,25.668H75.188V9.557H17.831ZM77.5,28.007H15.528V7.2H77.5Z" fill="none" stroke="#330f10" stroke-linecap="round" stroke-linejoin="round" stroke-width="0.75"/>
    <rect id="Rectangle_316" data-name="Rectangle 316" width="57.355" height="16.109" transform="translate(95.647 9.559)" fill="none" stroke="#330f10" stroke-linecap="round" stroke-linejoin="round" stroke-width="0.75"/>
    <g id="Group_108" data-name="Group 108">
      <g id="Group_107" data-name="Group 107" clip-path="url(#clip-path)">
        <path id="Path_228" data-name="Path 228" d="M29.422,15.006a22.646,22.646,0,0,0-4.875,3.09,13.241,13.241,0,0,0-3.594,4.537.732.732,0,0,0,.047.739.714.714,0,0,0,.635.368H41.947a.21.21,0,0,0,.177-.117,3.557,3.557,0,0,1,.383-.71.248.248,0,0,0,.025-.167.132.132,0,0,0-.093-.113l-12.85-7.627a.2.2,0,0,0-.167,0" fill="#330f10"/>
        <path id="Path_229" data-name="Path 229" d="M45.453,20.682v-9a.262.262,0,0,0-.06-.139.163.163,0,0,0-.136-.053,44.5,44.5,0,0,0-6.619.652,38.3,38.3,0,0,0-6.439,1.7.213.213,0,0,0-.124.162.219.219,0,0,0,.09.184l11.943,7.075a.188.188,0,0,0,.181,0,4.706,4.706,0,0,1,1.023-.384.23.23,0,0,0,.141-.2" fill="#330f10"/>
        <path id="Path_230" data-name="Path 230" d="M47.435,20.682v-9a.222.222,0,0,1,.055-.139.177.177,0,0,1,.135-.053,44.418,44.418,0,0,1,6.615.652,37.524,37.524,0,0,1,6.431,1.7A.192.192,0,0,1,60.8,14a.186.186,0,0,1-.1.184L48.777,21.262a.186.186,0,0,1-.18,0,4.733,4.733,0,0,0-1.019-.384.205.205,0,0,1-.143-.2" fill="#330f10"/>
        <path id="Path_231" data-name="Path 231" d="M63.463,15.006a22.919,22.919,0,0,1,4.879,3.09,13.363,13.363,0,0,1,3.595,4.537.8.8,0,0,1-.051.739.737.737,0,0,1-.627.368H50.932a.2.2,0,0,1-.173-.117,3.928,3.928,0,0,0-.376-.71.214.214,0,0,1-.035-.167c.019-.048.046-.1.091-.113l12.84-7.627a.244.244,0,0,1,.184,0" fill="#330f10"/>
        <path id="Path_232" data-name="Path 232" d="M107.312,15.006a22.646,22.646,0,0,0-4.875,3.09,13.241,13.241,0,0,0-3.594,4.537.732.732,0,0,0,.047.739.714.714,0,0,0,.635.368h20.312a.21.21,0,0,0,.177-.117,3.558,3.558,0,0,1,.383-.71.248.248,0,0,0,.025-.167.132.132,0,0,0-.093-.113l-12.85-7.627a.2.2,0,0,0-.167,0" fill="#330f10"/>
        <path id="Path_233" data-name="Path 233" d="M123.344,20.682v-9a.262.262,0,0,0-.06-.139.163.163,0,0,0-.136-.053,44.5,44.5,0,0,0-6.619.652,38.3,38.3,0,0,0-6.439,1.7.213.213,0,0,0-.124.162.219.219,0,0,0,.09.184L122,21.262a.188.188,0,0,0,.181,0,4.706,4.706,0,0,1,1.023-.384.23.23,0,0,0,.141-.2" fill="#330f10"/>
        <path id="Path_234" data-name="Path 234" d="M125.325,20.682v-9a.222.222,0,0,1,.055-.139.177.177,0,0,1,.135-.053,44.418,44.418,0,0,1,6.615.652,37.524,37.524,0,0,1,6.431,1.7.192.192,0,0,1,.131.162.186.186,0,0,1-.1.184l-11.928,7.075a.186.186,0,0,1-.18,0,4.733,4.733,0,0,0-1.019-.384.205.205,0,0,1-.143-.2" fill="#330f10"/>
        <path id="Path_235" data-name="Path 235" d="M141.354,15.006a22.938,22.938,0,0,1,4.878,3.09,13.363,13.363,0,0,1,3.6,4.537.807.807,0,0,1-.051.739.737.737,0,0,1-.627.368H128.822a.2.2,0,0,1-.173-.117,3.928,3.928,0,0,0-.376-.71.214.214,0,0,1-.035-.167c.019-.048.047-.1.091-.113l12.84-7.627a.247.247,0,0,1,.185,0" fill="#330f10"/>
        <path id="Rectangle_317" data-name="Rectangle 317" d="M1.8,0H167.87a1.8,1.8,0,0,1,1.8,1.8v30.6a1.8,1.8,0,0,1-1.8,1.8H1.8a1.8,1.8,0,0,1-1.8-1.8V1.8A1.8,1.8,0,0,1,1.8,0Z" transform="translate(0.5 0.5)" fill="none" stroke="#330f10" stroke-miterlimit="10" stroke-width="1"/>
      </g>
    </g>
  </g>
</svg>
