<svg xmlns="http://www.w3.org/2000/svg" xmlns:xlink="http://www.w3.org/1999/xlink" width="169" height="35.211" viewBox="0 0 169 35.211">
  <defs>
    <clipPath id="clip-path">
      <rect id="Rectangle_339" data-name="Rectangle 339" width="169" height="35.211" fill="none"/>
    </clipPath>
  </defs>
  <g id="Group_127" data-name="Group 127" transform="translate(0 0)">
    <rect id="Rectangle_334" data-name="Rectangle 334" width="60.002" height="18.754" transform="translate(16.329 8.229)" fill="none" stroke="#330f10" stroke-linecap="round" stroke-linejoin="round" stroke-width="0.75"/>
    <rect id="Rectangle_335" data-name="Rectangle 335" width="64.169" height="22.918" transform="translate(14.246 6.147)" fill="none" stroke="#330f10" stroke-linecap="round" stroke-linejoin="round" stroke-width="0.75"/>
    <rect id="Rectangle_336" data-name="Rectangle 336" width="60.001" height="18.754" transform="translate(92.668 8.229)" fill="none" stroke="#330f10" stroke-linecap="round" stroke-linejoin="round" stroke-width="0.75"/>
    <rect id="Rectangle_337" data-name="Rectangle 337" width="64.169" height="22.918" transform="translate(90.586 6.147)" fill="none" stroke="#330f10" stroke-linecap="round" stroke-linejoin="round" stroke-width="0.75"/>
    <g id="Group_126" data-name="Group 126" transform="translate(0 0)">
      <g id="Group_125" data-name="Group 125" clip-path="url(#clip-path)">
        <path id="Path_275" data-name="Path 275" d="M30.412,13.437a.167.167,0,0,1,.143.044.2.2,0,0,1,.07.153v2.854a.213.213,0,0,1-.05.145.208.208,0,0,1-.135.044h-12.3a.185.185,0,0,1-.127-.044.193.193,0,0,1-.06-.145v-.6A.183.183,0,0,1,18.1,15.7q6.14-1.269,12.311-2.26" transform="translate(-0.176 0)" fill="#330f10"/>
        <path id="Path_276" data-name="Path 276" d="M18.14,25.352a.182.182,0,0,1-.187-.182V18.721a.182.182,0,0,1,.059-.137.16.16,0,0,1,.128-.05h12.3a.178.178,0,0,1,.135.05.2.2,0,0,1,.049.137V25.17a.215.215,0,0,1-.049.134.2.2,0,0,1-.135.048Z" transform="translate(-0.176 0)" fill="#330f10"/>
        <path id="Path_277" data-name="Path 277" d="M47.435,25.352a.178.178,0,0,1-.18-.182V18.721a.2.2,0,0,1,.05-.137.178.178,0,0,1,.13-.05h12.3a.149.149,0,0,1,.128.05.2.2,0,0,1,.059.137V25.17a.227.227,0,0,1-.059.134.164.164,0,0,1-.128.048Z" transform="translate(-0.463 0)" fill="#330f10"/>
        <path id="Path_278" data-name="Path 278" d="M74.384,25.352a.186.186,0,0,0,.192-.182V18.721a.231.231,0,0,0-.052-.137.192.192,0,0,0-.14-.05H62.091a.167.167,0,0,0-.136.05.212.212,0,0,0-.055.137V25.17a.24.24,0,0,0,.055.134.184.184,0,0,0,.136.048Z" transform="translate(-0.607 0)" fill="#330f10"/>
        <path id="Path_279" data-name="Path 279" d="M45.083,25.352a.181.181,0,0,0,.192-.182V18.721a.231.231,0,0,0-.052-.137.181.181,0,0,0-.14-.05H32.79a.153.153,0,0,0-.127.05.178.178,0,0,0-.059.137V25.17a.2.2,0,0,0,.059.134.169.169,0,0,0,.127.048Z" transform="translate(-0.32 0)" fill="#330f10"/>
        <path id="Path_280" data-name="Path 280" d="M59.927,16.489a.216.216,0,0,1-.059.144.173.173,0,0,1-.128.045h-12.3a.213.213,0,0,1-.13-.045.223.223,0,0,1-.05-.144V11.452a.189.189,0,0,1,.168-.191q6.142-.609,12.305-.965a.235.235,0,0,1,.139.053.2.2,0,0,1,.059.138Z" transform="translate(-0.463 0)" fill="#330f10"/>
        <path id="Path_281" data-name="Path 281" d="M74.384,9.856a.256.256,0,0,1,.14.051.247.247,0,0,1,.052.138v6.444a.25.25,0,0,1-.052.144.236.236,0,0,1-.14.046H62.091a.2.2,0,0,1-.136-.046.228.228,0,0,1-.055-.144v-6.11a.183.183,0,0,1,.179-.194c4.1-.2,8.206-.305,12.305-.329" transform="translate(-0.607 0)" fill="#330f10"/>
        <path id="Path_282" data-name="Path 282" d="M45.063,11.488a.188.188,0,0,1,.152.06.165.165,0,0,1,.061.132v4.809a.238.238,0,0,1-.053.144.212.212,0,0,1-.139.045H32.79a.182.182,0,0,1-.127-.045.19.19,0,0,1-.058-.144V13.281a.186.186,0,0,1,.152-.19q6.151-.93,12.305-1.6" transform="translate(-0.32 0)" fill="#330f10"/>
        <path id="Path_283" data-name="Path 283" d="M140.132,13.437a.167.167,0,0,0-.143.044.2.2,0,0,0-.07.153v2.854a.213.213,0,0,0,.049.145.205.205,0,0,0,.134.044h12.3a.185.185,0,0,0,.127-.044.193.193,0,0,0,.06-.145v-.6a.183.183,0,0,0-.149-.188q-6.142-1.269-12.311-2.26" transform="translate(-1.372 0)" fill="#330f10"/>
        <path id="Path_284" data-name="Path 284" d="M152.4,25.352a.182.182,0,0,0,.187-.182V18.721a.182.182,0,0,0-.059-.137.16.16,0,0,0-.128-.05H140.1a.176.176,0,0,0-.135.05.2.2,0,0,0-.049.137V25.17a.215.215,0,0,0,.049.134.2.2,0,0,0,.135.048Z" transform="translate(-1.372 0)" fill="#330f10"/>
        <path id="Path_285" data-name="Path 285" d="M123.108,25.352a.178.178,0,0,0,.18-.182V18.721a.2.2,0,0,0-.05-.137.178.178,0,0,0-.13-.05H110.8a.149.149,0,0,0-.128.05.2.2,0,0,0-.059.137V25.17a.227.227,0,0,0,.059.134.164.164,0,0,0,.128.048Z" transform="translate(-1.084 0)" fill="#330f10"/>
        <path id="Path_286" data-name="Path 286" d="M96.159,25.352a.187.187,0,0,1-.193-.182V18.721a.232.232,0,0,1,.053-.137.192.192,0,0,1,.14-.05h12.293a.167.167,0,0,1,.136.05.211.211,0,0,1,.055.137V25.17a.24.24,0,0,1-.055.134.184.184,0,0,1-.136.048Z" transform="translate(-0.941 0)" fill="#330f10"/>
        <path id="Path_287" data-name="Path 287" d="M125.461,25.352a.181.181,0,0,1-.192-.182V18.721a.231.231,0,0,1,.052-.137.181.181,0,0,1,.14-.05h12.292a.154.154,0,0,1,.128.05.178.178,0,0,1,.059.137V25.17a.2.2,0,0,1-.059.134.169.169,0,0,1-.128.048Z" transform="translate(-1.228 0)" fill="#330f10"/>
        <path id="Path_288" data-name="Path 288" d="M110.618,16.489a.216.216,0,0,0,.059.144.173.173,0,0,0,.128.045h12.3a.215.215,0,0,0,.13-.045.218.218,0,0,0,.051-.144V11.452a.189.189,0,0,0-.168-.191q-6.139-.609-12.305-.965a.233.233,0,0,0-.139.053.2.2,0,0,0-.059.138Z" transform="translate(-1.084 0)" fill="#330f10"/>
        <path id="Path_289" data-name="Path 289" d="M96.159,9.856a.256.256,0,0,0-.14.051.249.249,0,0,0-.053.138v6.444a.251.251,0,0,0,.053.144.236.236,0,0,0,.14.046h12.293a.2.2,0,0,0,.136-.046.228.228,0,0,0,.055-.144v-6.11a.184.184,0,0,0-.179-.194c-4.1-.2-8.206-.305-12.305-.329" transform="translate(-0.941 0)" fill="#330f10"/>
        <path id="Path_290" data-name="Path 290" d="M125.482,11.488a.188.188,0,0,0-.152.06.165.165,0,0,0-.061.132v4.809a.238.238,0,0,0,.053.144.211.211,0,0,0,.138.045h12.294a.182.182,0,0,0,.127-.045.19.19,0,0,0,.058-.144V13.281a.186.186,0,0,0-.152-.19q-6.151-.93-12.305-1.6" transform="translate(-1.228 0)" fill="#330f10"/>
        <path id="Rectangle_338" data-name="Rectangle 338" d="M1.8,0h164.4a1.8,1.8,0,0,1,1.8,1.8v30.6a1.8,1.8,0,0,1-1.8,1.8H1.8a1.8,1.8,0,0,1-1.8-1.8V1.8A1.8,1.8,0,0,1,1.8,0Z" transform="translate(0.495 0.5)" fill="none" stroke="#330f10" stroke-miterlimit="10" stroke-width="1"/>
      </g>
    </g>
  </g>
</svg>
