<svg xmlns="http://www.w3.org/2000/svg" xmlns:xlink="http://www.w3.org/1999/xlink" width="170.673" height="35.211" viewBox="0 0 170.673 35.211">
  <defs>
    <clipPath id="clip-path">
      <rect id="Rectangle_333" data-name="Rectangle 333" width="170.673" height="35.211" transform="translate(0 0)" fill="none"/>
    </clipPath>
  </defs>
  <g id="Group_124" data-name="Group 124" transform="translate(0 0)">
    <rect id="Rectangle_328" data-name="Rectangle 328" width="59.996" height="18.752" transform="translate(16.26 8.23)" fill="none" stroke="#330f10" stroke-linecap="round" stroke-linejoin="round" stroke-width="0.75"/>
    <rect id="Rectangle_329" data-name="Rectangle 329" width="64.164" height="22.916" transform="translate(14.177 6.148)" fill="none" stroke="#330f10" stroke-linecap="round" stroke-linejoin="round" stroke-width="0.75"/>
    <rect id="Rectangle_330" data-name="Rectangle 330" width="59.997" height="18.752" transform="translate(94.264 8.23)" fill="none" stroke="#330f10" stroke-linecap="round" stroke-linejoin="round" stroke-width="0.75"/>
    <rect id="Rectangle_331" data-name="Rectangle 331" width="64.164" height="22.916" transform="translate(92.182 6.148)" fill="none" stroke="#330f10" stroke-linecap="round" stroke-linejoin="round" stroke-width="0.75"/>
    <g id="Group_123" data-name="Group 123">
      <g id="Group_122" data-name="Group 122" clip-path="url(#clip-path)">
        <path id="Path_259" data-name="Path 259" d="M18.068,25.36a.19.19,0,0,1-.189-.189V18.723a.189.189,0,0,1,.055-.135.179.179,0,0,1,.134-.057H30.49a.167.167,0,0,1,.134.057.177.177,0,0,1,.055.135v6.448a.2.2,0,0,1-.189.189Z" fill="#330f10"/>
        <path id="Path_260" data-name="Path 260" d="M47.374,25.36a.191.191,0,0,1-.192-.189V18.723a.19.19,0,0,1,.192-.192H59.791a.166.166,0,0,1,.134.057.173.173,0,0,1,.058.135v6.448a.2.2,0,0,1-.192.189Z" fill="#330f10"/>
        <path id="Path_261" data-name="Path 261" d="M74.446,25.36a.191.191,0,0,0,.188-.189V18.723a.181.181,0,0,0-.059-.135.168.168,0,0,0-.129-.057H62.024a.183.183,0,0,0-.136.057.194.194,0,0,0-.056.135v6.448a.2.2,0,0,0,.192.189Z" fill="#330f10"/>
        <path id="Path_262" data-name="Path 262" d="M45.143,25.36a.189.189,0,0,0,.188-.189V18.723a.179.179,0,0,0-.057-.135.171.171,0,0,0-.131-.057H32.721a.2.2,0,0,0-.136.057.194.194,0,0,0-.056.135v6.448a.187.187,0,0,0,.056.129.2.2,0,0,0,.136.06Z" fill="#330f10"/>
        <path id="Path_263" data-name="Path 263" d="M18.068,16.683a.191.191,0,0,1-.189-.194V10.046a.194.194,0,0,1,.055-.135.188.188,0,0,1,.134-.059H30.49a.175.175,0,0,1,.134.059.182.182,0,0,1,.055.135v6.443a.177.177,0,0,1-.055.134.179.179,0,0,1-.134.06Z" fill="#330f10"/>
        <path id="Path_264" data-name="Path 264" d="M47.374,16.683a.192.192,0,0,1-.192-.194V10.046a.2.2,0,0,1,.054-.135.2.2,0,0,1,.138-.059H59.791a.174.174,0,0,1,.134.059.178.178,0,0,1,.058.135v6.443a.173.173,0,0,1-.058.134.178.178,0,0,1-.134.06Z" fill="#330f10"/>
        <path id="Path_265" data-name="Path 265" d="M74.446,16.683a.192.192,0,0,0,.188-.194V10.046a.186.186,0,0,0-.059-.135.177.177,0,0,0-.129-.059H62.024a.193.193,0,0,0-.136.059.2.2,0,0,0-.056.135v6.443a.194.194,0,0,0,.056.134.2.2,0,0,0,.136.06Z" fill="#330f10"/>
        <path id="Path_266" data-name="Path 266" d="M45.143,16.683a.19.19,0,0,0,.188-.194V10.046a.184.184,0,0,0-.057-.135.18.18,0,0,0-.131-.059H32.721a.21.21,0,0,0-.136.059.2.2,0,0,0-.056.135v6.443a.194.194,0,0,0,.056.134.217.217,0,0,0,.136.06Z" fill="#330f10"/>
        <path id="Path_267" data-name="Path 267" d="M96.076,25.36a.19.19,0,0,1-.189-.189V18.723a.189.189,0,0,1,.055-.135.179.179,0,0,1,.134-.057H108.5a.167.167,0,0,1,.134.057.177.177,0,0,1,.055.135v6.448a.2.2,0,0,1-.189.189Z" fill="#330f10"/>
        <path id="Path_268" data-name="Path 268" d="M125.381,25.36a.191.191,0,0,1-.192-.189V18.723a.19.19,0,0,1,.192-.192H137.8a.166.166,0,0,1,.134.057.173.173,0,0,1,.058.135v6.448a.2.2,0,0,1-.192.189Z" fill="#330f10"/>
        <path id="Path_269" data-name="Path 269" d="M152.454,25.36a.191.191,0,0,0,.188-.189V18.723a.181.181,0,0,0-.059-.135.168.168,0,0,0-.129-.057H140.032a.183.183,0,0,0-.136.057.194.194,0,0,0-.056.135v6.448a.2.2,0,0,0,.192.189Z" fill="#330f10"/>
        <path id="Path_270" data-name="Path 270" d="M123.151,25.36a.189.189,0,0,0,.188-.189V18.723a.179.179,0,0,0-.057-.135.171.171,0,0,0-.131-.057H110.729a.2.2,0,0,0-.136.057.194.194,0,0,0-.056.135v6.448a.187.187,0,0,0,.056.129.2.2,0,0,0,.136.06Z" fill="#330f10"/>
        <path id="Path_271" data-name="Path 271" d="M96.076,16.683a.191.191,0,0,1-.189-.194V10.046a.194.194,0,0,1,.055-.135.188.188,0,0,1,.134-.059H108.5a.175.175,0,0,1,.134.059.182.182,0,0,1,.055.135v6.443a.177.177,0,0,1-.055.134.179.179,0,0,1-.134.06Z" fill="#330f10"/>
        <path id="Path_272" data-name="Path 272" d="M125.381,16.683a.192.192,0,0,1-.192-.194V10.046a.2.2,0,0,1,.054-.135.2.2,0,0,1,.138-.059H137.8a.174.174,0,0,1,.134.059.178.178,0,0,1,.058.135v6.443a.173.173,0,0,1-.058.134.178.178,0,0,1-.134.06Z" fill="#330f10"/>
        <path id="Path_273" data-name="Path 273" d="M152.454,16.683a.192.192,0,0,0,.188-.194V10.046a.186.186,0,0,0-.059-.135.177.177,0,0,0-.129-.059H140.032a.193.193,0,0,0-.136.059.2.2,0,0,0-.056.135v6.443a.194.194,0,0,0,.056.134.2.2,0,0,0,.136.06Z" fill="#330f10"/>
        <path id="Path_274" data-name="Path 274" d="M123.151,16.683a.19.19,0,0,0,.188-.194V10.046a.184.184,0,0,0-.057-.135.18.18,0,0,0-.131-.059H110.729a.21.21,0,0,0-.136.059.2.2,0,0,0-.056.135v6.443a.194.194,0,0,0,.056.134.217.217,0,0,0,.136.06Z" fill="#330f10"/>
        <path id="Rectangle_332" data-name="Rectangle 332" d="M1.8,0H167.87a1.8,1.8,0,0,1,1.8,1.8v30.6a1.8,1.8,0,0,1-1.8,1.8H1.8a1.8,1.8,0,0,1-1.8-1.8V1.8A1.8,1.8,0,0,1,1.8,0Z" transform="translate(0.5 0.5)" fill="none" stroke="#330f10" stroke-miterlimit="10" stroke-width="1"/>
      </g>
    </g>
  </g>
</svg>
