<svg xmlns="http://www.w3.org/2000/svg" xmlns:xlink="http://www.w3.org/1999/xlink" width="169" height="35.211" viewBox="0 0 169 35.211">
  <defs>
    <clipPath id="clip-path">
      <rect id="Rectangle_303" data-name="Rectangle 303" width="169" height="35.211" fill="none"/>
    </clipPath>
  </defs>
  <g id="Group_94" data-name="Group 94" transform="translate(0 0)">
    <path id="Path_164" data-name="Path 164" d="M151.34,28.382h-60.4V7.858h60.4Zm-134-2.307h55.9V10.18H17.34ZM75.5,28.382H15.1V7.858H75.5Z" transform="translate(0)" fill="none" stroke="#330f10" stroke-linecap="round" stroke-linejoin="round" stroke-width="0.75"/>
    <rect id="Rectangle_301" data-name="Rectangle 301" width="56.588" height="15.894" transform="translate(92.47 10.18)" fill="none" stroke="#330f10" stroke-linecap="round" stroke-linejoin="round" stroke-width="0.75"/>
    <g id="Group_93" data-name="Group 93" transform="translate(0 0)">
      <g id="Group_92" data-name="Group 92" clip-path="url(#clip-path)">
        <path id="Path_165" data-name="Path 165" d="M46.746,24.165a.187.187,0,0,1-.176-.2v-4.7a.2.2,0,0,1,.051-.141.2.2,0,0,1,.125-.057H58.153a.21.21,0,0,1,.13.057.213.213,0,0,1,.057.141v4.7a.206.206,0,0,1-.057.135.174.174,0,0,1-.13.061Z" transform="translate(-0.456 0)" fill="#330f10"/>
        <path id="Path_166" data-name="Path 166" d="M19.349,24.165a.191.191,0,0,1-.18-.2v-4.7a.207.207,0,0,1,.055-.141.209.209,0,0,1,.125-.057H30.756a.2.2,0,0,1,.131.057.191.191,0,0,1,.051.141v4.7a.183.183,0,0,1-.051.135.17.17,0,0,1-.131.061Z" transform="translate(-0.188 0)" fill="#330f10"/>
        <path id="Path_167" data-name="Path 167" d="M44.458,24.165a.193.193,0,0,0,.183-.2v-4.7a.187.187,0,0,0-.056-.141.215.215,0,0,0-.127-.057h-11.4a.22.22,0,0,0-.131.057.2.2,0,0,0-.055.141v4.7a.191.191,0,0,0,.055.135.182.182,0,0,0,.131.061Z" transform="translate(-0.322 0)" fill="#330f10"/>
        <path id="Path_168" data-name="Path 168" d="M44.445,12.31h.013a.189.189,0,0,1,.183.192v4.471a.189.189,0,0,1-.183.195h-11.4a.187.187,0,0,1-.185-.195V13.5a.19.19,0,0,1,.164-.193s7.364-.8,11.411-1" transform="translate(-0.322 0)" fill="#330f10"/>
        <path id="Path_169" data-name="Path 169" d="M58.34,16.974a.191.191,0,0,1-.187.193H46.746a.183.183,0,0,1-.176-.193V12.387a.181.181,0,0,1,.167-.195l2.537-.113h8.879a.2.2,0,0,1,.187.192Z" transform="translate(-0.456 0)" fill="#330f10"/>
        <path id="Path_170" data-name="Path 170" d="M71.851,12.079a.191.191,0,0,1,.191.192v4.7a.22.22,0,0,1-.062.14.173.173,0,0,1-.129.054h-11.4a.18.18,0,0,1-.13-.054.219.219,0,0,1-.05-.14v-4.7a.219.219,0,0,1,.05-.138.165.165,0,0,1,.13-.054Z" transform="translate(-0.591 0)" fill="#330f10"/>
        <path id="Path_171" data-name="Path 171" d="M71.851,24.165a.192.192,0,0,0,.191-.2v-4.7a.218.218,0,0,0-.062-.141.2.2,0,0,0-.129-.057h-11.4a.205.205,0,0,0-.13.057.217.217,0,0,0-.05.141v4.7a.209.209,0,0,0,.05.135.171.171,0,0,0,.13.061Z" transform="translate(-0.591 0)" fill="#330f10"/>
        <path id="Path_172" data-name="Path 172" d="M30.755,13.563a.178.178,0,0,1,.183.194v3.216a.186.186,0,0,1-.183.193H19.348a.187.187,0,0,1-.18-.193V15.486a.2.2,0,0,1,.156-.2s9.1-1.725,11.431-1.725" transform="translate(-0.188 0)" fill="#330f10"/>
        <path id="Path_173" data-name="Path 173" d="M121.238,24.165a.187.187,0,0,0,.176-.2v-4.7a.186.186,0,0,0-.176-.2H109.831a.205.205,0,0,0-.13.057.213.213,0,0,0-.057.141v4.7a.206.206,0,0,0,.057.135.171.171,0,0,0,.13.061Z" transform="translate(-1.075 0)" fill="#330f10"/>
        <path id="Path_174" data-name="Path 174" d="M148.635,24.165a.192.192,0,0,0,.18-.2v-4.7a.207.207,0,0,0-.055-.141.212.212,0,0,0-.125-.057H137.228a.2.2,0,0,0-.131.057.188.188,0,0,0-.052.141v4.7a.18.18,0,0,0,.052.135.17.17,0,0,0,.131.061Z" transform="translate(-1.343 0)" fill="#330f10"/>
        <path id="Path_175" data-name="Path 175" d="M123.525,24.165a.192.192,0,0,1-.183-.2v-4.7a.187.187,0,0,1,.056-.141.212.212,0,0,1,.127-.057h11.4a.223.223,0,0,1,.132.057.2.2,0,0,1,.054.141v4.7a.194.194,0,0,1-.054.135.184.184,0,0,1-.132.061Z" transform="translate(-1.209 0)" fill="#330f10"/>
        <path id="Path_176" data-name="Path 176" d="M123.538,12.31h-.013a.189.189,0,0,0-.183.192v4.471a.189.189,0,0,0,.183.195h11.4a.187.187,0,0,0,.185-.195V13.5a.19.19,0,0,0-.164-.193s-7.364-.8-11.411-1" transform="translate(-1.209 0)" fill="#330f10"/>
        <path id="Path_177" data-name="Path 177" d="M109.644,16.974a.191.191,0,0,0,.187.193h11.407a.183.183,0,0,0,.176-.193V12.387a.181.181,0,0,0-.167-.195l-2.537-.113h-8.879a.2.2,0,0,0-.187.192Z" transform="translate(-1.075 0)" fill="#330f10"/>
        <path id="Path_178" data-name="Path 178" d="M96.133,12.079a.191.191,0,0,0-.191.192v4.7a.22.22,0,0,0,.062.14.171.171,0,0,0,.129.054h11.4a.18.18,0,0,0,.13-.054.224.224,0,0,0,.05-.14v-4.7a.225.225,0,0,0-.05-.138.165.165,0,0,0-.13-.054Z" transform="translate(-0.94 0)" fill="#330f10"/>
        <path id="Path_179" data-name="Path 179" d="M96.133,24.165a.192.192,0,0,1-.191-.2v-4.7A.218.218,0,0,1,96,19.124a.194.194,0,0,1,.129-.057h11.4a.205.205,0,0,1,.13.057.223.223,0,0,1,.05.141v4.7a.215.215,0,0,1-.05.135.171.171,0,0,1-.13.061Z" transform="translate(-0.94 0)" fill="#330f10"/>
        <path id="Path_180" data-name="Path 180" d="M137.228,13.563a.178.178,0,0,0-.183.194v3.216a.185.185,0,0,0,.183.193h11.407a.187.187,0,0,0,.18-.193V15.486a.2.2,0,0,0-.155-.2s-9.1-1.725-11.432-1.725" transform="translate(-1.343 0)" fill="#330f10"/>
        <path id="Rectangle_302" data-name="Rectangle 302" d="M1.8,0h164.4a1.8,1.8,0,0,1,1.8,1.8v30.6a1.8,1.8,0,0,1-1.8,1.8H1.8a1.8,1.8,0,0,1-1.8-1.8V1.8A1.8,1.8,0,0,1,1.8,0Z" transform="translate(0.495 0.5)" fill="none" stroke="#330f10" stroke-miterlimit="10" stroke-width="1"/>
      </g>
    </g>
  </g>
</svg>
