<svg xmlns="http://www.w3.org/2000/svg" xmlns:xlink="http://www.w3.org/1999/xlink" width="169" height="35.211" viewBox="0 0 169 35.211">
  <defs>
    <clipPath id="clip-path">
      <rect id="Rectangle_315" data-name="Rectangle 315" width="169" height="35.211" fill="none"/>
    </clipPath>
  </defs>
  <g id="Group_106" data-name="Group 106" transform="translate(0 0)">
    <path id="Path_210" data-name="Path 210" d="M32.07,23.425l-.006-.038-.016-.029-.025-.033-4.481-4.7-.134-.066H19.2l-.189.2v4.712l.189.192H31.923l.04-.015.029-.014.031-.02.025-.045.016-.025.006-.045.007-.028Zm-12.9-4.864-.031.008-.031.013-.025.024-.024.018-.016.028-.015.038-.011.028,0,.037.189-.2ZM19.017,23.5l.011.045.015.019.016.03.024.028.025.013.031.021.031.008H19.2l-.189-.192Z" fill="#330f10"/>
    <path id="Path_211" data-name="Path 211" d="M32.071,11.709l-.007-.032-.016-.036-.025-.031-.03-.018-.029-.021-.04-.009-.034-.009H19.2l-.189.2v4.7l.189.2h8.208l.133-.055,4.481-4.711.025-.029.016-.037.007-.033.006-.037ZM19.018,16.5l.01.036.016.028.016.03.024.021.025.024.03.009.032.009.03,0-.189-.2Zm.153-4.933-.032.009-.03.015-.025.018-.024.021-.016.031-.016.037-.01.026-.006.035.189-.2Z" fill="#330f10"/>
    <path id="Path_212" data-name="Path 212" d="M34.23,22.958l.036.013.035.008.033.007.04-.007.036-.008.031-.013.031-.018H34.2Zm5.226-5.389-.01-.038-.019-.032-.022-.033-4.933-5.179H34.2l-4.93,5.179-.025.033-.016.032-.011.038,0,.034,0,.043.011.037.016.033.025.03L34.2,22.94h.269L39.4,17.746l.022-.03.019-.033.01-.037v-.077Zm-5.008-5.306-.032-.024-.03,0h-.1l-.03,0-.029.024-.027.024h.269Z" transform="translate(-0.305)" fill="#330f10"/>
    <path id="Path_213" data-name="Path 213" d="M36.787,11.552h0l-.036.01-.033.01-.033.013-.022.018-.029.029-.016.031L36.6,11.7l-.01.028v.042l.007.031.01.033.019.03.024.028L41.131,16.6l.136.056h8.479l.133-.056,4.478-4.712-.133-.337Zm17.619.157-.007-.033-.017-.034-.021-.033-.03-.018-.033-.019-.036-.01-.038-.01.137.337.021-.028.017-.037.007-.033.007-.037Z" transform="translate(-0.401)" fill="#330f10"/>
    <path id="Path_214" data-name="Path 214" d="M54.357,23.325l-4.478-4.7-.133-.066H41.267l-.136.066-4.477,4.7-.024.025-.019.029-.01.037-.007.034v.039l.01.027.013.043.016.03.029.021.022.021.033.013.033.015H54.224Zm.049.1-.007-.037-.017-.03-.021-.033-.137.334h.038l.036-.015.033-.013.03-.021.021-.045.017-.025.007-.045.007-.028Z" transform="translate(-0.401)" fill="#330f10"/>
    <path id="Path_215" data-name="Path 215" d="M56.54,12.287,51.6,17.466v.28L56.54,22.94H56.8l4.93-5.194v-.28L56.8,12.287Zm5.247,5.282-.01-.038-.013-.032-.026-.033v.28l.026-.03.013-.033.01-.037.006-.043Zm-5.22,5.389.035.013.032.008.04.007.039-.007.03-.008.031-.013.027-.018H56.54Zm-5-5.427-.012.038,0,.034,0,.043.012.037.013.033.022.03v-.28l-.022.033Zm5.213-5.268-.032-.024-.03,0h-.1l-.028,0-.034.024-.023.024H56.8Z" transform="translate(-0.538)" fill="#330f10"/>
    <path id="Path_216" data-name="Path 216" d="M71.99,11.753l-.186-.2H59.115l-.1.253.1-.253-.032.01-.04.009-.026.021-.031.017-.023.032-.014.036-.014.033-.005.043.005.039.014.033.014.037.023.028L63.467,16.6l.135.056h8.2l.186-.2Zm-.157,4.9.036-.009.027-.009.031-.023.02-.021.018-.032.015-.027.01-.035v-.037l-.186.2Zm.157-4.933-.01-.026-.015-.037-.018-.031-.02-.021-.031-.018-.027-.015-.036-.009-.029-.01.186.2Z" transform="translate(-0.626)" fill="#330f10"/>
    <path id="Path_217" data-name="Path 217" d="M71.805,23.659l.185-.192V18.756l-.185-.2H63.6l-.133.065-4.481,4.7-.023.033-.016.03-.013.037,0,.042,0,.028.013.045.016.025.023.045.031.021.027.013.039.015h.032l-.1-.256.1.256Zm.185-4.941-.009-.028-.016-.037-.017-.028-.02-.019-.032-.023-.026-.014-.036-.007-.029-.007.185.2Zm-.156,4.941.036-.007.026-.021.032-.014.02-.028.017-.03.016-.019.009-.045v-.028l-.185.192Z" transform="translate(-0.626)" fill="#330f10"/>
    <path id="Path_218" data-name="Path 218" d="M108.842,23.425l-.006-.038-.016-.029-.025-.033-4.481-4.7-.134-.066H95.974l-.189.2v4.712l.189.192h12.721l.04-.015.029-.014.031-.02.025-.045.016-.025.006-.045.007-.028Zm-12.9-4.864-.03.008-.032.013-.024.024-.025.018-.016.028-.015.038-.011.028,0,.037.189-.2ZM95.789,23.5l.011.045.015.019.016.03.025.028.024.013.032.021.03.008h.032l-.189-.192Z" transform="translate(-1.017)" fill="#330f10"/>
    <path id="Path_219" data-name="Path 219" d="M108.843,11.709l-.007-.032-.016-.036-.025-.031-.03-.018-.029-.021-.04-.009-.034-.009H95.973l-.189.2v4.7l.189.2h8.208l.133-.055,4.481-4.711.025-.029.016-.037.007-.033.006-.037ZM95.79,16.5l.01.036.016.028.016.03.024.021.025.024.03.009.032.009.03,0-.189-.2Zm.153-4.933-.032.009-.03.015-.025.018-.024.021-.016.031-.016.037-.01.026-.006.035.189-.2Z" transform="translate(-1.017)" fill="#330f10"/>
    <path id="Path_220" data-name="Path 220" d="M111,22.958l.036.013.035.008.033.007.04-.007.036-.008.031-.013.031-.018h-.269Zm5.226-5.389-.01-.038L116.2,17.5l-.022-.033-4.933-5.179h-.269l-4.93,5.179-.025.033-.016.032-.011.038,0,.034,0,.043.011.037.016.033.025.03,4.93,5.194h.269l4.933-5.194.022-.03.019-.033.01-.037v-.077Zm-5.008-5.306-.032-.024-.03,0h-.1l-.03,0-.029.024-.027.024h.269Z" transform="translate(-1.105)" fill="#330f10"/>
    <path id="Path_221" data-name="Path 221" d="M113.559,11.552h0l-.036.01-.033.01-.033.013-.022.018-.029.029-.016.031-.013.034-.01.028v.042l.007.031.01.033.019.03.024.028L117.9,16.6l.136.056h8.479l.131-.056,4.48-4.712L131,11.552Zm17.619.157-.007-.033-.017-.034-.021-.033-.03-.018-.033-.019-.036-.01-.038-.01.137.337.021-.028.017-.037.007-.033.007-.037Z" transform="translate(-1.241)" fill="#330f10"/>
    <path id="Path_222" data-name="Path 222" d="M131.129,23.325l-4.48-4.7-.131-.066h-8.479l-.136.066-4.477,4.7-.024.025-.019.029-.01.037-.007.034v.039l.01.027.013.043.016.03.029.021.022.021.033.013.033.015H131Zm.049.1-.007-.037-.017-.03-.021-.033-.137.334h.038l.036-.015.033-.013.03-.021.021-.045.017-.025.007-.045.007-.028Z" transform="translate(-1.241)" fill="#330f10"/>
    <path id="Path_223" data-name="Path 223" d="M133.311,12.287l-4.936,5.179v.28l4.936,5.194h.262l4.93-5.194v-.28l-4.93-5.179Zm5.249,5.282-.012-.038-.013-.032-.025-.033v.28l.025-.03.013-.033.012-.037.007-.043Zm-5.222,5.389.035.013.033.008.039.007.039-.007.031-.008.031-.013.027-.018h-.262Zm-5-5.427-.011.038,0,.034,0,.043.011.037.013.033.022.03v-.28l-.022.033Zm5.213-5.268-.032-.024-.03,0h-.1l-.028,0-.033.024-.024.024h.262Z" transform="translate(-1.338)" fill="#330f10"/>
    <path id="Path_224" data-name="Path 224" d="M148.761,11.753l-.184-.2H135.886l-.1.253.1-.253-.032.01-.039.009-.027.021-.031.017-.021.032-.016.036-.014.033,0,.043,0,.039.014.033.016.037.021.028,4.482,4.711.134.056h8.2l.184-.2Zm-.156,4.9.036-.009.026-.009.032-.023.02-.021.018-.032.015-.027.009-.035v-.037l-.184.2Zm.156-4.933-.009-.026-.015-.037-.018-.031-.02-.021-.032-.018-.026-.015-.036-.009-.028-.01.184.2Z" transform="translate(-1.673)" fill="#330f10"/>
    <path id="Path_225" data-name="Path 225" d="M148.577,23.659l.185-.192V18.756l-.185-.2h-8.205l-.133.065-4.481,4.7-.023.033-.016.03-.013.037,0,.042,0,.028.013.045.016.025.023.045.031.021.027.013.039.015h.032l-.1-.256.1.256Zm.185-4.941-.009-.028-.016-.037-.017-.028-.02-.019-.032-.023-.026-.014-.036-.007-.029-.007.185.2Zm-.156,4.941.036-.007.026-.021.032-.014.02-.028.017-.03.016-.019.009-.045v-.028l-.185.192Z" transform="translate(-1.673)" fill="#330f10"/>
    <path id="Path_226" data-name="Path 226" d="M151.176,27.868h-60.4V7.344h60.4Zm-134-2.308h55.9V9.665h-55.9Zm58.158,2.308h-60.4V7.344h60.4Z" fill="none" stroke="#330f10" stroke-linecap="round" stroke-linejoin="round" stroke-width="0.75"/>
    <rect id="Rectangle_313" data-name="Rectangle 313" width="56.588" height="15.894" transform="translate(92.306 9.666)" fill="none" stroke="#330f10" stroke-linecap="round" stroke-linejoin="round" stroke-width="0.75"/>
    <g id="Group_105" data-name="Group 105" transform="translate(0 0)">
      <g id="Group_104" data-name="Group 104" clip-path="url(#clip-path)">
        <path id="Rectangle_314" data-name="Rectangle 314" d="M1.8,0h164.4a1.8,1.8,0,0,1,1.8,1.8v30.6a1.8,1.8,0,0,1-1.8,1.8H1.8a1.8,1.8,0,0,1-1.8-1.8V1.8A1.8,1.8,0,0,1,1.8,0Z" transform="translate(0.495 0.5)" fill="none" stroke="#330f10" stroke-miterlimit="10" stroke-width="1"/>
      </g>
    </g>
  </g>
</svg>
